<?xml version="1.0" encoding="UTF-8" standalone="no"?>
<svg
   xmlns:osb="http://www.openswatchbook.org/uri/2009/osb"
   xmlns:dc="http://purl.org/dc/elements/1.1/"
   xmlns:cc="http://creativecommons.org/ns#"
   xmlns:rdf="http://www.w3.org/1999/02/22-rdf-syntax-ns#"
   xmlns:svg="http://www.w3.org/2000/svg"
   xmlns="http://www.w3.org/2000/svg"
   version="1.1"
   id="svg2"
   viewBox="0 0 77.241718 59.624171"
   height="16.827265mm"
   width="21.79933mm">
  <defs
     id="defs4">
    <linearGradient
       osb:paint="solid"
       id="linearGradient6450">
      <stop
         id="stop6452"
         offset="0"
         style="stop-color:#000000;stop-opacity:1;" />
    </linearGradient>
  </defs>
  <metadata
     id="metadata7">
    <rdf:RDF>
      <cc:Work
         rdf:about="">
        <dc:format>image/svg+xml</dc:format>
        <dc:type
           rdf:resource="http://purl.org/dc/dcmitype/StillImage" />
        <dc:title></dc:title>
      </cc:Work>
    </rdf:RDF>
  </metadata>
  <g
     transform="translate(-590.70798,-940.20703)"
     id="layer1">
    <path
       id="path4589"
       d="m 608.98724,976.17358 -4.13261,0.0133 c 0,0 0.002,-1.57713 0.052,-2.32158 0.4824,-1.47555 0.78089,-2.98478 1.23492,-4.20498 l 17.09096,-0.0133 c 0,0.057 -2.04313,6.52662 -14.24511,6.52662 z"
       style="fill:#ccffaa;stroke:none" />
    <path
       id="path4603"
       d="m 614.99846,955.87097 c 0.22701,-0.0851 0.51078,-0.17025 0.65267,0.0567 0.14188,0.19864 -0.0851,0.42565 -0.39727,0.59591 0.19863,-0.0284 0.31214,-0.0851 0.39727,0.0851 0.14188,0.25538 -0.34053,0.62429 -0.59591,0.7378 0.19864,-0.11351 0.42565,-0.14189 0.4824,0.0567 0.0851,0.31214 -1.10669,1.02155 -1.84449,1.44721 -0.34052,0.31213 -1.36207,0.68104 -1.90124,0.79454 -0.14188,0.0284 -0.73779,0.0284 -1.27695,0.19863 -0.0567,-0.39727 -0.1135,-0.73779 -0.17026,-1.19181 -0.0284,-0.28376 -0.0567,-0.56753 -0.0851,-0.82293 0.25539,-0.28376 0.51078,-0.56753 0.68104,-0.8513 0,-0.0284 0.0284,-0.0284 0.0284,-0.0567 l 0,0 c 0.0285,-0.0284 0.0285,-0.0284 0.0567,-0.0567 0,0 0,0 0.0284,-0.0284 0.0285,-0.0284 0.17027,-0.17025 0.17027,-0.17025 0.0567,-0.0567 0.4824,-0.45403 0.87967,-0.53916 0.3689,-0.0851 0.70943,0 0.70943,0 0.25538,-0.0851 0.90805,-0.39728 1.33371,-0.59591 0,0 0.70941,-0.31214 0.87967,-0.14189 0.14188,0.14189 0.17026,0.31215 -0.0285,0.4824 z"
       style="fill:#ccffaa;stroke:none" />
    <path
       id="path4599"
       d="m 600.89524,957.28981 c -0.14189,0.0567 -0.31215,0.0852 -0.42566,0.0852 -0.11351,0 -0.19864,-0.0285 -0.22701,-0.11352 -0.17026,-0.28377 -2.9228,-4.65378 -4.37002,-5.61859 0.19864,-0.39727 0.34052,-0.8513 0.53917,-1.44721 0.0285,-0.0851 0.0567,-0.14188 0.0567,-0.22701 0.11351,0.56753 0.51078,1.07831 1.53235,1.19182 0.34051,-0.0285 1.04994,-0.65267 1.67422,-0.90806 0.0567,0.19864 0.14188,0.39727 0.14188,0.5959 -0.0851,0.0285 -0.17025,0.0852 -0.25538,0.11352 0,0.0851 -0.0285,0.17025 -0.0285,0.25539 l 0,0 c 0.0852,0 0.19864,0 0.28377,0 0.76617,2.97955 1.53234,4.90917 1.61749,5.47671 0.0284,0.19863 0.0284,0.28376 -0.0285,0.31214 -0.14189,0.14189 -0.25538,0.17026 -0.51078,0.28377 z"
       style="fill:#ccffaa;stroke:none" />
    <path
       id="path4595"
       d="m 612.95534,967.78918 c -0.0567,0 -0.14188,0 -0.19864,0 -0.0284,0 -0.0851,0 -0.1135,0 -0.0567,0 -0.0851,0 -0.14189,0 -0.0284,0 -0.0851,0 -0.1135,0 -0.0285,0 -0.0852,0 -0.11351,-0.0285 -0.0284,0 -0.0851,0 -0.11351,-0.0285 -0.0284,0 -0.0851,-0.0285 -0.1135,-0.0285 -0.0285,0 -0.0851,-0.0285 -0.11352,-0.0285 -0.0284,0 -0.0851,-0.0285 -0.1135,-0.0285 -0.0284,0 -0.0851,-0.0285 -0.11351,-0.0285 -0.0284,0 -0.0851,-0.0285 -0.1135,-0.0285 -0.0284,0 -0.0567,-0.0285 -0.11351,-0.0285 -0.0285,-0.0285 -0.0567,-0.0285 -0.1135,-0.057 -0.0285,-0.0285 -0.0567,-0.0285 -0.11352,-0.057 -0.0284,-0.0285 -0.0567,-0.0285 -0.11349,-0.057 -0.0285,-0.0285 -0.0567,-0.0285 -0.0851,-0.057 -0.0285,-0.0285 -0.0567,-0.0285 -0.0852,-0.057 -0.0284,-0.0285 -0.0567,-0.0285 -0.0851,-0.057 -0.0284,-0.0285 -0.0567,-0.057 -0.0851,-0.057 -0.0284,-0.0285 -0.0567,-0.057 -0.0851,-0.057 -0.0285,-0.0285 -0.0567,-0.057 -0.0851,-0.0851 -0.0285,-0.0285 -0.0567,-0.057 -0.0851,-0.0851 -0.0284,-0.0285 -0.0567,-0.057 -0.0851,-0.0852 -0.0284,-0.0285 -0.0567,-0.057 -0.0851,-0.0851 -0.0285,-0.0285 -0.0567,-0.057 -0.0851,-0.0852 -0.0285,-0.0285 -0.0567,-0.057 -0.0852,-0.0851 -0.0284,-0.0285 -0.0567,-0.057 -0.0851,-0.0852 -0.0284,-0.0285 -0.0567,-0.057 -0.0567,-0.0851 -0.0284,-0.0285 -0.0567,-0.0852 -0.0851,-0.11351 0,-0.0285 -0.0284,-0.0285 -0.0284,-0.057 0,0 0.45403,-0.057 0.76617,-0.057 0.31214,0 0.53915,0.057 0.59591,0.0851 l 0,0 c 0.0285,0.0285 0.0285,0.0285 0.0567,0.057 0.0284,0.0285 0.0567,0.057 0.1135,0.0852 0.0285,0.0285 0.0567,0.0285 0.0851,0.057 0.0284,0.0285 0.0851,0.0285 0.11351,0.057 0.0284,0.0285 0.0567,0.0285 0.0851,0.057 0.0284,0.0285 0.0851,0.0285 0.1135,0.057 0.0285,0 0.0567,0.0285 0.0851,0.0285 0.0284,0.0285 0.0851,0.0285 0.11351,0.0285 0.0284,0 0.0567,0.0285 0.0851,0.0285 0.0284,0 0.0851,0.0285 0.1135,0.0285 0.0284,0 0.0567,0.0285 0.11352,0.0285 0.0284,0 0.0851,0 0.11349,0.0285 0.0285,0 0.0567,0 0.11352,0 0.0284,0 0.0851,0 0.14188,0 0.0284,0 0.0567,0 0.0567,0 0.0284,0 0.0567,0 0.0851,0 0,0 0,0 0.0284,0 1.3337,-0.057 2.35526,-1.16345 2.2985,-2.49716 l 0,0 c 0,-0.0852 0,-0.17026 -0.0284,-0.25543 0,-0.0285 0,-0.0285 0,-0.057 0,-0.057 -0.0284,-0.1135 -0.0284,-0.17026 0,-0.0285 0,-0.057 -0.0285,-0.057 -0.0284,-0.057 -0.0284,-0.1135 -0.0567,-0.17026 0,-0.0285 -0.0284,-0.057 -0.0284,-0.057 -0.0284,-0.057 -0.0284,-0.0851 -0.0567,-0.14184 0,-0.0285 -0.0284,-0.057 -0.0284,-0.0852 -0.0285,-0.057 -0.0567,-0.0851 -0.0567,-0.14184 0,-0.0285 -0.0284,-0.057 -0.0567,-0.057 -0.0284,-0.0285 -0.0567,-0.0851 -0.0851,-0.11351 -0.0284,-0.0285 -0.0284,-0.057 -0.0567,-0.057 -0.0284,-0.0285 -0.0567,-0.0851 -0.0851,-0.11351 -0.0284,-0.0285 -0.0284,-0.0285 -0.0567,-0.057 -0.0284,-0.0285 -0.0567,-0.0567 -0.1135,-0.11352 -0.0284,-0.0284 -0.0567,-0.0284 -0.0567,-0.0567 -0.0284,-0.0284 -0.0851,-0.0567 -0.1135,-0.0851 -0.0285,-0.0284 -0.0567,-0.0284 -0.0567,-0.0567 -0.0285,-0.0284 -0.0851,-0.0567 -0.11351,-0.0851 -0.0284,-0.0284 -0.0567,-0.0284 -0.0851,-0.0567 -0.0284,-0.0284 -0.0851,-0.0567 -0.1135,-0.0567 -0.0284,0 -0.0567,-0.0285 -0.0851,-0.0285 -0.0567,-0.0284 -0.0851,-0.0284 -0.14189,-0.0567 -0.0284,0 -0.0567,-0.0285 -0.0851,-0.0285 -0.0567,-0.0284 -0.0851,-0.0284 -0.14189,-0.0567 -0.0285,0 -0.0567,-0.0284 -0.0851,-0.0284 -0.0567,0 -0.0851,-0.0284 -0.14188,-0.0284 -0.0285,0 -0.0567,0 -0.0851,0 -0.0567,0 -0.0851,0 -0.14189,-0.0285 -0.0284,0 -0.0567,0 -0.0851,0 -0.0284,0 -0.0567,0 -0.0851,0 -0.0285,0 -0.0567,0 -0.0851,0 -0.76617,0.0285 -1.41884,0.39727 -1.84449,0.96484 -0.3689,0.0285 -0.87967,0.1135 -1.27695,0.28377 0.45402,-1.27699 1.64585,-2.21341 3.06468,-2.27017 0.0851,0 0.17026,0 0.2554,0 0.0567,0 0.0851,0 0.14187,0 0.0567,0 0.14189,0 0.19864,0.0284 0.0567,0 0.0851,0 0.14188,0.0284 0.0567,0 0.14189,0.0284 0.19865,0.0284 0.0567,0 0.0851,0.0284 0.14188,0.0284 0.0567,0.0284 0.11351,0.0284 0.19863,0.0567 0.0284,0.0284 0.0851,0.0284 0.11352,0.0567 0.0567,0.0284 0.11349,0.0567 0.17025,0.0851 0.0285,0.0284 0.0851,0.0284 0.11352,0.0567 0.0567,0.0284 0.11349,0.0567 0.17025,0.0851 0.0284,0.0284 0.0851,0.0567 0.11351,0.0567 0.0567,0.0284 0.1135,0.0567 0.14188,0.11351 0.0284,0.0284 0.0851,0.0567 0.11351,0.0851 0.0567,0.0284 0.0851,0.0851 0.14189,0.11349 0.0284,0.0285 0.0567,0.0567 0.1135,0.0852 0.0567,0.0567 0.0851,0.0851 0.14188,0.14187 0.0284,0.0284 0.0567,0.0567 0.0851,0.0851 0.0285,0.0567 0.0851,0.0851 0.11351,0.14188 0.0284,0.0284 0.0567,0.0567 0.0851,0.1135 0.0285,0.0567 0.0567,0.11351 0.1135,0.17026 0.0284,0.0284 0.0567,0.0851 0.0851,0.11351 0.0284,0.0567 0.0567,0.11348 0.0851,0.17024 0.0285,0.0285 0.0567,0.0852 0.0567,0.1135 0.0284,0.057 0.0567,0.11352 0.0851,0.17027 0.0284,0.0285 0.0284,0.0852 0.0567,0.11351 0.0284,0.057 0.0284,0.14193 0.0567,0.19869 0,0.0285 0.0284,0.0851 0.0284,0.11351 0.0284,0.0851 0.0284,0.14184 0.0567,0.22702 0,0.0285 0,0.057 0.0285,0.11343 0.0284,0.1135 0.0284,0.22702 0.0284,0.34053 0,1.90126 -1.4472,3.49033 -3.32007,3.54708 z"
       style="fill:#ccffaa;stroke:none" />
    <path
       id="path4587"
       d="m 601.179,961.65983 c 0,0 -2.69579,-8.34275 -5.70372,-8.34275 -0.1135,0 -0.22702,0 -0.34051,0.0284 -0.14189,0.0285 -0.68105,0.28376 -0.79456,0.31214 l -0.0567,-0.34052 c 0.31214,-0.22702 1.10669,-0.7378 1.30533,-1.19183 1.30533,0.90806 3.60384,4.37003 4.37001,5.64698 0.0567,0.11351 0.22702,0.28377 0.56754,0.28377 0.19863,0 0.39727,-0.0567 0.59591,-0.14189 0.28377,0.70942 0.56753,2.58228 0.79455,3.4052 1.7026,-0.65265 6.83879,-3.20656 7.9171,-3.63221 0.0851,0.90806 0.19864,1.98636 0.36889,2.63903 0,0.8513 -2.55389,2.49711 -2.63902,3.51871 l -6.38477,-2.185 z"
       style="fill:#ccffaa;stroke:none" />
    <path
       id="path4585"
       d="m 590.70798,942.47716 0.65268,0.34053 0.25539,-0.70943 0.76617,0.3689 0.42565,-0.70941 0.70942,0.3689 0.34052,-0.62429 0.65266,0.31215 0.34053,-0.56754 0.65266,0.31214 0.36889,-0.68104 0.65267,0.31214 0.34052,-0.62428 0.70942,0.34051 0.42565,-0.70941 0,0 0.73779,3.7741 -6.35638,1.81612 -1.67424,-3.32009 z"
       style="fill:#ccffaa;stroke:none" />
    <path
       id="path4583"
       d="m 592.49572,946.05264 6.27126,-1.81611 0.17026,0.53915 -6.24287,1.84449 -0.19865,-0.56753 z"
       style="fill:#ccffaa;stroke:none" />
    <path
       id="path4581"
       d="m 599.30613,946.84718 0,0 c 0,0 -1.70259,0.4824 -2.75253,1.73098 0,0 0,0 0.0284,0 0,0 -0.0284,0.1135 -0.0851,0.31214 -0.0851,0.25539 -0.19864,0.7378 -0.36889,1.24858 -0.17027,0.56753 -0.62429,1.53234 -0.62429,1.50397 -0.11351,0.3689 -0.45403,0.73779 -0.45403,0.73779 l 0,0 c -0.34052,0.34052 -0.76618,0.4824 -1.39046,0.68105 0,0 0,0 -0.0284,0 -0.0284,0 -0.0567,0 -0.0851,0.0284 l -0.0284,0 c -0.0285,0 -0.0567,0 -0.0567,0 -0.0284,0 -0.0284,0 -0.0567,0 -0.0284,0 -0.0284,0 -0.0567,0 -0.0284,0 -0.0284,0 -0.0567,0 -0.0285,0 -0.0285,0 -0.0567,-0.0284 -0.0285,0 -0.0285,0 -0.0567,-0.0284 -0.0284,-0.0284 -0.0284,-0.0284 -0.0567,-0.0284 -0.0284,0 -0.0284,-0.0285 -0.0567,-0.0285 -0.0284,0 -0.0284,-0.0285 -0.0567,-0.0285 -0.0284,0 -0.0284,-0.0284 -0.0567,-0.0284 -0.0284,0 -0.0284,-0.0284 -0.0567,-0.0284 -0.0284,0 -0.0284,-0.0285 -0.0567,-0.0285 -0.0284,0 -0.0284,-0.0284 -0.0567,-0.0567 -0.0285,-0.0285 -0.0285,-0.0285 -0.0567,-0.0567 -0.0284,-0.0284 -0.0284,-0.0284 -0.0567,-0.0567 -0.0284,-0.0284 -0.0284,-0.0284 -0.0567,-0.0567 -0.0284,-0.0284 -0.0284,-0.0284 -0.0567,-0.0567 -0.0285,-0.0284 -0.0285,-0.0284 -0.0567,-0.0567 -0.0285,-0.0285 -0.0285,-0.0285 -0.0567,-0.0567 -0.0284,-0.0284 -0.0284,-0.0284 -0.0567,-0.0567 -0.0284,-0.0284 -0.0284,-0.0284 -0.0567,-0.0567 -0.0285,-0.0285 -0.0285,-0.0567 -0.0567,-0.0567 -0.0284,-0.0284 -0.0284,-0.0567 -0.0567,-0.0567 -0.0284,-0.0284 -0.0284,-0.0567 -0.0567,-0.0851 -0.0284,-0.0285 -0.0284,-0.0567 -0.0567,-0.0567 -0.0284,-0.0567 -0.0567,-0.0851 -0.0851,-0.14188 -0.0284,-0.0284 -0.0284,-0.0567 -0.0567,-0.0851 -0.0284,-0.0285 -0.0284,-0.0567 -0.0567,-0.0851 0,-0.0284 -0.0285,-0.0567 -0.0285,-0.0851 0,-0.0284 -0.0284,-0.0567 -0.0284,-0.0851 0,-0.0284 -0.0284,-0.0567 -0.0284,-0.0851 0,-0.0284 -0.0285,-0.0567 -0.0285,-0.0851 0,-0.0285 -0.0284,-0.0567 -0.0284,-0.0851 0,-0.0285 -0.0284,-0.0567 -0.0284,-0.0851 0,-0.0284 -0.0285,-0.0567 -0.0285,-0.0851 0,-0.0284 -0.0284,-0.0567 -0.0284,-0.0851 0,-0.0284 -0.0284,-0.0567 -0.0284,-0.0851 0,-0.0284 -0.0285,-0.0567 -0.0285,-0.0851 0,-0.0284 -0.0285,-0.0567 -0.0285,-0.0851 0,-0.0284 -0.0284,-0.0567 -0.0284,-0.0851 0,-0.0285 -0.0285,-0.0567 -0.0285,-0.0851 0,-0.0285 0,-0.0567 -0.0284,-0.0851 0,-0.0284 0,-0.0567 -0.0285,-0.0851 0,-0.0285 0,-0.0567 0,-0.0851 0,-0.0284 0,-0.0567 0,-0.0851 0,-0.0284 0,-0.0567 0,-0.0851 0,-0.0285 0,-0.0567 0,-0.0852 0,-0.0284 0,-0.0567 0,-0.0851 0,-0.0284 0,-0.0567 0,-0.0851 0,-0.0284 0,-0.0567 0,-0.0567 0,-0.0284 0,-0.0567 0,-0.0851 0,-0.0284 0,-0.0284 0,-0.0567 0.0285,-0.22701 0.0852,-0.39727 0.22702,-0.56754 0.82292,-1.04994 0.7378,-1.41882 1.2202,-2.29851 0.0284,-0.0567 0.0567,-0.0851 0.0851,-0.14188 l 5.95912,-1.61748 0,0 c 0,0 0.0284,0 0.0851,0 0.14188,0.11352 0.59591,-0.0284 0.68104,1.1067 0,0.14188 -0.0851,0.28377 -0.22702,0.39727 -0.0851,0.11351 -0.14188,0.14189 -0.19864,0.17026 z"
       style="fill:#ccffaa;stroke:none" />
    <path
       id="path4577"
       d="m 595.58879,968.38515 c -0.22701,-1.04994 -0.51078,-2.21338 -0.82293,-3.40524 -0.99319,-3.85924 -2.12825,-8.25763 -0.93643,-10.21562 0.31214,-0.51078 0.79455,-0.82292 1.44722,-0.96481 0.0851,-0.0284 0.17025,-0.0284 0.25538,-0.0284 2.18501,0 4.56866,5.81723 5.27808,8.05899 0.0284,0.14189 0.14187,0.22702 0.28376,0.28377 l 6.61178,2.27012 c 0.0567,0.17026 0.22702,1.50397 -3.32008,7.51987 -1.22019,2.07144 -2.01475,3.17813 -2.61066,4.00112 -0.79455,1.10669 -1.27696,1.78767 -1.95799,3.60385 -0.19863,0.51079 -0.31215,1.04993 -0.39727,1.56072 -1.1067,-3.12145 -3.06469,-9.05218 -3.83086,-12.68443 z"
       style="fill:#ccffaa;stroke:none" />
    <path
       id="path4575"
       d="m 607.96103,964.3556 0.0851,-0.0851 c 0.45403,-0.0852 1.04994,-0.5108 1.4756,-0.70941 0.34051,-0.17026 1.4472,-0.4257 1.87286,-0.28378 0.28377,0.11352 0.62428,0.17028 0.68104,0.85126 0.0284,0.5108 -0.0567,0.90808 -0.0567,1.2202 0,0.11351 -0.36889,0.53921 -0.53915,0.70948 -1.50397,-0.48246 -3.14982,0.79449 -4.00112,0.62423 0.36891,-0.56748 0.8513,-2.18496 0.4824,-2.32689 z"
       style="fill:#ccffaa;stroke:none" />
    <path
       id="path4573"
       d="m 604.69771,972.10249 c 0.25539,-0.39729 0.45404,-0.79457 0.68105,-1.16344 -1.27695,3.63217 -2.69578,8.28595 -3.88761,10.72634 -0.51079,1.04993 -1.02157,1.67425 -1.27696,1.61749 -0.14188,0.0285 -0.36889,-0.19861 -0.56753,-0.7945 0.0285,-0.70947 0.17026,-1.87292 0.53916,-2.8661 1.13506,-3.12146 1.67423,-2.72417 4.51189,-7.51979 z"
       style="fill:#ccffaa;stroke:none" />
    <path
       id="path4571"
       d="m 600.12906,949.88349 0,0 c -0.4824,0.0285 -1.02156,0.3689 -1.50396,0.68104 -0.22702,0.14188 -0.51079,0.34052 -0.65267,0.3689 -0.51078,-0.0567 -0.8513,-0.25539 -1.04993,-0.56754 -0.28377,-0.45402 -0.22703,-1.04993 -0.14189,-1.39046 0.0285,-0.1135 0.0567,-0.19862 0.0567,-0.19862 l 0,0 0,0 0,0 0,0 c 0,-0.0285 0.0284,-0.0567 0.0284,-0.0567 0.62428,-0.87969 1.44721,-1.1067 2.01475,-1.27695 0.17026,-0.0567 0.34051,-0.11352 0.4824,-0.17026 0,0.19863 0,0.39727 0,0.59591 0,0 0,0.25538 0.17026,0.62429 0.17026,0.34051 0.82292,1.24857 0.87968,1.36207 l 0,0 -0.22701,0.0567 c 0,-0.0284 -0.0285,-0.0284 -0.0567,-0.0284 z"
       style="fill:#ccffaa;stroke:none" />
    <path
       id="path4555"
       d="m 655.2591,979.93464 -10.244,-2.21346 c 0.45403,-0.22694 0.7378,-0.56747 0.93643,-0.87966 l 10.47101,1.73099 c 0.3689,0.34054 0.2554,0.73782 0.0851,0.93643 -0.17026,0.14192 -0.56753,0.39728 -1.24857,0.4257 z"
       style="fill:#ccffaa;stroke:none" />
    <path
       id="path4549"
       d="m 647.54063,974.20252 c 0.0852,-0.17026 0.11351,-0.34054 0.14188,-0.5108 l 11.0953,0.96484 c 0.31215,0.28378 0.39728,0.65265 0.28377,0.87967 -0.14188,0.36887 -0.59591,0.76615 -1.30533,0.82291 l -10.9818,-1.2202 c 0.34053,-0.22703 0.59592,-0.53914 0.76618,-0.93642 z"
       style="fill:#ccffaa;stroke:none" />
    <path
       id="path4547"
       d="m 656.56442,978.2604 -10.471,-1.731 c 0,-0.0285 0.0284,-0.057 0.0284,-0.0852 0.1135,-0.31211 0.1135,-0.62423 0,-0.93642 0.0851,-0.0285 0.17025,-0.0851 0.25539,-0.11351 l 11.3223,1.27695 c 0.3689,0.34053 0.39728,0.82299 0.22702,1.04993 -0.28376,0.34053 -0.70942,0.5108 -1.36209,0.53922 z"
       style="fill:#ccffaa;stroke:none" />
    <path
       id="path4507"
       d="m 611.21843,986.91505 c -0.36889,0 -1.0783,-0.14193 -1.53235,-0.5108 l -0.51077,-1.61748 c 0.0285,-0.0285 0.0567,-0.057 0.11351,-0.0851 0.42565,0.1986 0.90805,0.31211 1.36207,0.31211 0.2554,0 0.56754,-0.057 0.85131,-0.17027 l 0.79455,1.56073 c -0.0851,0.31211 -0.53916,0.5108 -1.07832,0.5108 z"
       style="fill:#ccffaa;stroke:none" />
    <path
       id="path4437"
       d="m 655.91176,980.7008 c 0.65266,-0.14193 1.02156,-0.45404 1.19182,-0.62432 0.11351,-0.1135 0.19864,-0.25535 0.28377,-0.39728 l 4.59703,0.90808 c 0.25539,0.31211 0.17026,0.76616 -0.17026,1.04993 -0.31215,0.28378 -0.93643,0.48239 -1.61747,0.5108 l -4.34164,-1.07834 c 0.0285,-0.11352 0.0567,-0.22703 0.0567,-0.36887 z"
       style="fill:#ccffaa;stroke:none" />
    <path
       id="path4431"
       d="m 617.43293,988.9584 -0.70941,-1.27695 c 0.0851,0 0.14188,0 0.22701,0 0.65267,0 1.13508,-0.11352 1.47559,-0.34054 0.45403,0.17028 0.93644,0.25537 1.30533,0.28378 l 1.1067,1.4188 c 0.0567,0.36895 -0.34053,0.68107 -1.07832,0.68107 -0.79455,0 -1.61747,-0.28378 -2.3269,-0.76616 z"
       style="fill:#ccffaa;stroke:none" />
    <path
       id="path4415"
       d="m 640.27618,986.94483 c 0.65268,0.17026 1.33371,0.25544 1.92962,0.25544 0.3689,0 0.70943,-0.0285 0.99318,-0.11351 l 0.0284,0 0.0284,0 c 0.0284,0 0.0567,-0.0285 0.0851,-0.0285 l 2.21339,1.24853 c 0.0284,0.42571 -0.62429,0.73782 -1.47559,0.73782 -0.82293,0.057 -1.98638,-0.14193 -3.00793,-0.56755 l -1.56073,-0.99318 c 0.34053,-0.1135 0.59592,-0.31211 0.76617,-0.53913 z"
       style="fill:#ccffaa;stroke:none" />
    <path
       id="path4413"
       d="m 644.24893,986.34894 c 0.4824,0.11351 0.90806,0.17027 1.30533,0.17027 0.45402,0 0.87968,-0.0852 1.19182,-0.22702 l 0.0567,-0.0285 0.0567,-0.0285 c 0.0284,0 0.0284,-0.0285 0.0567,-0.057 l 2.0715,1.04993 c 0.14189,0.36887 -0.39728,0.68106 -0.96481,0.82291 -0.48241,0.14193 -1.39046,0.17027 -2.185,-0.057 l -2.04313,-1.16344 c 0.22701,-0.14185 0.3689,-0.31211 0.45402,-0.48239 z"
       style="fill:#ccffaa;stroke:none" />
    <path
       id="path4411"
       d="m 620.29898,987.65423 c 0.28377,0 0.87968,-0.0285 1.33371,-0.36887 0.62429,0.28378 1.30533,0.39729 1.75936,0.42562 l 1.10668,1.36214 c 0.0567,0.42561 -0.76617,0.59589 -1.3337,0.59589 -0.56753,0 -1.13506,-0.17028 -1.67423,-0.42563 l -1.22019,-1.58915 c 0.0284,0 0.0284,0 0.0284,0 z"
       style="fill:#ccffaa;stroke:none" />
    <path
       id="path4409"
       d="m 650.46343,984.05039 c 0.87968,-0.057 1.5891,-0.31211 2.09988,-0.79449 0.11351,-0.11352 0.22702,-0.22702 0.31215,-0.34054 l 3.7741,1.3053 c 0.45402,0.48246 -0.11351,1.04993 -0.82293,1.36212 -0.31214,0.14185 -1.13507,0.31212 -1.95799,0.31212 l -3.46196,-1.50398 c 0,-0.0851 0.0567,-0.1986 0.0567,-0.34053 z"
       style="fill:#ccffaa;stroke:none" />
    <path
       id="path4405"
       d="m 653.0741,982.48975 c 0.87966,0 1.67422,-0.25545 2.185,-0.62432 0.17026,-0.1135 0.28377,-0.28377 0.39727,-0.4257 l 4.11462,1.02159 c 0.17026,0.34054 0,0.79458 -0.36889,1.13512 -0.3689,0.34044 -1.1067,0.51071 -1.78774,0.56746 l -4.54026,-1.58906 c -0.0285,-0.0285 0,-0.057 0,-0.0851 z"
       style="fill:#ccffaa;stroke:none" />
    <path
       id="path4403"
       d="m 647.39875,985.49761 c 0.19863,0.0285 0.3689,0.0285 0.53916,0.0285 0.90805,0 1.58909,-0.1986 2.01474,-0.56747 0.0567,-0.057 0.1135,-0.11352 0.17026,-0.17026 l 2.86604,1.22019 c 0.45403,0.3972 -0.19862,0.908 -0.90805,1.10669 -0.59591,0.1986 -1.50396,0.1986 -2.32689,0.0851 l -2.5539,-1.30529 c 0.1135,-0.11351 0.17026,-0.25544 0.19864,-0.39729 z"
       style="fill:#ccffaa;stroke:none" />
    <path
       id="path4401"
       d="m 627.50667,987.76774 c 0.56754,0 1.02156,-0.14185 1.33371,-0.36887 0.62429,0.22702 1.2202,0.34054 1.75936,0.36887 l 1.78772,1.19186 c -0.0284,0.34054 -0.70942,0.65265 -1.39046,0.65265 -0.31214,0 -0.99318,-0.057 -1.70259,-0.31211 l -1.78774,-1.5324 0,0 z"
       style="fill:#ccffaa;stroke:none" />
    <path
       id="path4399"
       d="m 625.12303,987.37054 c 0.59591,0.22694 1.24858,0.31211 1.70261,0.36887 l 1.61746,1.36204 c 0,0.39728 -0.82292,0.53921 -1.73098,0.53921 -0.45402,0 -1.04994,-0.14193 -1.61747,-0.39728 l -1.19182,-1.47564 c 0.34052,-0.0285 0.8513,-0.11351 1.2202,-0.3972 z"
       style="fill:#ccffaa;stroke:none" />
    <path
       id="path4397"
       d="m 636.53046,987.34204 c 0.65267,0.19861 1.33371,0.31213 1.958,0.31213 0.0851,0 0.19864,0 0.28376,0 0.0851,0 0.14189,0 0.22701,-0.0285 l 2.04313,1.27696 c -0.14188,0.28377 -0.65266,0.45404 -1.19182,0.48237 -0.48241,0.0285 -1.5891,-0.1135 -2.5539,-0.45404 l -1.58911,-1.10669 c 0.34053,-0.057 0.6243,-0.22702 0.82293,-0.48238 z"
       style="fill:#ccffaa;stroke:none" />
    <path
       id="path4395"
       d="m 632.52935,987.45556 c 0.62428,0.25535 1.36208,0.45396 2.29851,0.45396 0.0852,0 0.14188,0 0.22702,0 l 1.64584,1.10669 c -0.0567,0.31219 -0.56753,0.53921 -1.19182,0.53921 -0.31213,0 -1.16345,-0.0852 -1.95798,-0.31219 l -2.21339,-1.47556 c 0.25539,0.0285 0.79455,-0.0285 1.19182,-0.31211 z"
       style="fill:#ccffaa;stroke:none" />
    <path
       id="path4379"
       d="m 657.50086,978.97084 c 0.42565,-0.14184 0.79454,-0.36887 1.07831,-0.68098 l 0,-0.057 0.0285,-0.0285 c 0.14188,-0.19868 0.22701,-0.42571 0.25538,-0.65264 l 4.93755,0.73773 c 0.39727,0.31221 0.62429,0.9081 0.22701,1.36214 -0.31214,0.34052 -0.76617,0.59589 -1.30532,0.68098 l -5.22132,-1.04993 c 0,-0.11352 0,-0.22703 0,-0.31212 z"
       style="fill:#ccffaa;stroke:none" />
    <path
       id="path4377"
       d="m 613.54533,985.10025 c 0.28377,0 0.53915,-0.057 0.76617,-0.14184 l 0.82292,1.53231 c -0.14189,0.28378 -0.70942,0.39728 -1.04994,0.39728 -0.34051,0 -0.93643,-0.14193 -1.39045,-0.39728 l -0.90806,-1.81609 0,0 c 0.56754,0.28378 1.2202,0.42562 1.75936,0.42562 z"
       style="fill:#ccffaa;stroke:none" />
    <path
       id="path4349"
       d="m 658.80619,976.92758 c 0.53915,-0.25545 0.87967,-0.65265 1.04994,-1.07836 0.0851,-0.14185 0.1135,-0.31211 0.1135,-0.48237 l 5.16457,0.39728 c 0.62428,0.25537 1.02156,1.02152 0.59591,1.58907 -0.31214,0.34053 -0.68104,0.53913 -1.07832,0.65264 l -5.78885,-0.85124 c -0.0284,-0.0852 -0.0284,-0.14193 -0.0567,-0.22702 z"
       style="fill:#ccffaa;stroke:none" />
    <path
       id="path4347"
       d="m 635.02649,982.1489 c 0.45403,0.39729 0.56754,0.87966 -0.34051,1.13503 -0.0851,0.0285 -0.19864,0.0285 -0.31214,0.0285 -0.28377,0 -0.65267,-0.057 -0.99319,-0.14185 l -14.78426,-7.94549 c 0.25539,-0.11351 0.51077,-0.22702 0.73778,-0.36887 l 15.69232,7.29277 z"
       style="fill:#ccffaa;stroke:none" />
    <path
       id="path4345"
       d="m 626.22972,983.65288 c 0.0567,0.28369 -0.17026,0.53913 -0.59591,0.65263 -0.11351,0.0285 -0.25539,0.0285 -0.3689,0.0285 -0.3689,0 -0.73779,-0.0852 -1.10669,-0.22702 l 0.0284,-0.0285 -8.7684,-7.80356 c 0.25538,-0.057 0.4824,-0.11351 0.73779,-0.19869 l 10.07374,7.57664 z"
       style="fill:#ccffaa;stroke:none" />
    <path
       id="path4343"
       d="m 632.41584,983.02856 c 0.14189,0.28378 -0.0285,0.59589 -0.3689,0.73782 -0.19862,0.0851 -0.42564,0.11344 -0.65266,0.11344 -0.31213,0 -0.65266,-0.057 -0.99319,-0.1702 l -12.79789,-8.05899 c 0.22701,-0.0852 0.42565,-0.17028 0.62429,-0.25545 l 14.18835,7.63338 z"
       style="fill:#ccffaa;stroke:none" />
    <path
       id="path4341"
       d="m 629.40791,983.45419 c 0.14189,0.34053 0,0.65265 -0.51079,0.68106 -0.0567,0 -0.11349,0 -0.17025,0 -0.68104,0 -1.33371,-0.19868 -1.90123,-0.42563 l -10.32913,-7.71847 c 0.25539,-0.0852 0.4824,-0.14193 0.70941,-0.22702 l 12.20199,7.69006 z"
       style="fill:#ccffaa;stroke:none" />
    <path
       id="path4339"
       d="m 640.44645,979.33955 c 0.8513,0.42571 1.5891,1.0216 0.17026,1.70266 -0.11351,0.057 -0.73779,0.11351 -1.73098,0.17027 l -18.33135,-7.12259 c 0.19863,-0.14192 0.36889,-0.25544 0.53916,-0.39729 l 19.35291,5.64695 z"
       style="fill:#ccffaa;stroke:none" />
    <path
       id="path4337"
       d="m 642.68822,977.21136 c 0.65265,0.28376 1.19182,0.908 0.79453,1.50397 -0.36889,0.53913 -0.90805,0.68098 -1.53234,0.68098 -0.0851,0 -0.17025,0 -0.25539,0 L 621.40567,973.494 c 0.22702,-0.17026 0.42566,-0.36895 0.6243,-0.53922 l 20.65825,4.25658 z"
       style="fill:#ccffaa;stroke:none" />
    <path
       id="path4335"
       d="m 651.99577,982.65961 c -0.45402,0.3973 -1.0783,0.56756 -1.84448,0.56756 -0.28376,0 -0.56753,-0.0285 -0.87968,-0.0851 l -7.09417,-2.49716 c 0.0567,-0.14193 0.0567,-0.25543 0.0567,-0.39728 l 0,-0.0285 c 0.70942,-0.057 1.24857,-0.31211 1.67423,-0.76615 l 8.31437,2.55391 c 0.11352,0.25536 -0.0284,0.48238 -0.22701,0.65264 z"
       style="fill:#ccffaa;stroke:none" />
    <path
       id="path4333"
       d="m 647.96628,984.67438 c -0.42565,0 -0.87968,-0.057 -1.30532,-0.14184 l -6.07262,-2.61067 c 0.25538,-0.0285 0.31214,-0.0852 0.39727,-0.1135 0.51078,-0.25545 0.87968,-0.53914 1.07831,-0.85134 l 7.4347,2.61067 c 0.17027,0.25536 0.17027,0.51079 -0.0851,0.73781 -0.28377,0.25537 -0.82293,0.36887 -1.44722,0.36887 z"
       style="fill:#ccffaa;stroke:none" />
    <path
       id="path4331"
       d="m 644.67458,975.16816 c 0.45403,0.28378 0.76617,0.65273 0.65267,0.99326 -0.25539,0.65264 -0.76617,0.90801 -1.33371,0.99318 l -21.67981,-4.48359 c 0.19864,-0.1986 0.39728,-0.3972 0.53917,-0.59589 l 21.82168,3.09304 z"
       style="fill:#ccffaa;stroke:none" />
    <path
       id="path4329"
       d="m 654.77669,981.21248 c -0.28377,0.1986 -0.87967,0.45396 -1.75935,0.45396 -0.39728,0 -0.82293,-0.057 -1.30534,-0.17026 0.0567,0.0285 0.11352,0.057 0.14189,0.057 l -7.66171,-2.35522 0,0 c 0.25538,-0.36887 0.3689,-0.82291 0.25538,-1.24862 l 0.0285,0 10.44263,2.27022 c 0.31214,0.34045 0.11351,0.79449 -0.14189,0.99317 z"
       style="fill:#ccffaa;stroke:none" />
    <path
       id="path4327"
       d="m 608.91992,983.76638 c -0.0567,0.2837 -0.39727,0.42563 -0.87968,0.42563 -0.51077,0 -1.04994,-0.28378 -1.39046,-0.59589 l -1.75935,-6.66854 1.41883,0 2.61066,6.8388 z"
       style="fill:#ccffaa;stroke:none" />
    <path
       id="path4323"
       d="m 622.99477,983.45419 c 0.3689,0.48238 0,0.96484 -0.62428,0.96484 -0.0284,0 -0.0284,0 -0.0567,0 -0.51077,0 -0.96481,-0.11352 -1.36208,-0.31219 l -6.9523,-7.54821 c 0.34053,-0.057 0.65267,-0.11352 0.99318,-0.19861 l 8.00224,7.09417 z"
       style="fill:#ccffaa;stroke:none" />
    <path
       id="path4321"
       d="m 608.43752,986.91618 c -0.56754,0 -1.10669,-0.22702 -1.41884,-0.53921 l -0.45402,-1.61741 c 0.0284,-0.0285 0.0851,-0.057 0.11349,-0.057 0.42566,0.22702 0.90806,0.3972 1.36209,0.3972 0.36889,0 0.65266,-0.057 0.87968,-0.14184 l 0.51078,1.61748 c -0.19864,0.22702 -0.68104,0.34054 -0.99318,0.34054 z"
       style="fill:#ccffaa;stroke:none" />
    <path
       id="path4315"
       d="m 617.20592,983.5677 c -0.14188,-0.11351 -0.25539,-0.1986 -0.36889,-0.28377 0.39726,0.36895 -0.0567,0.96484 -0.53916,0.96484 -0.56754,0 -1.22019,-0.22702 -1.78774,-0.56756 l -3.85924,-6.75363 c 0.45404,-0.0285 0.90807,-0.057 1.33371,-0.0852 l 5.22132,6.7253 z"
       style="fill:#ccffaa;stroke:none" />
    <path
       id="path4313"
       d="m 611.5022,983.73797 c -0.0851,0.28378 -0.53915,0.42562 -0.85131,0.42562 -0.53915,0 -1.0783,-0.1986 -1.4472,-0.48238 l -2.58228,-6.7253 1.64585,0 3.23494,6.78206 z"
       style="fill:#ccffaa;stroke:none" />
    <path
       id="path4311"
       d="m 619.98684,983.51095 c -0.0851,-0.0851 -0.19863,-0.14185 -0.28377,-0.22702 0.39728,0.36895 0.31215,1.02158 -0.59591,1.02158 -0.42565,0 -0.82293,-0.14192 -1.22019,-0.31219 l -5.56184,-7.20767 c 0.45403,-0.057 0.87968,-0.11352 1.30533,-0.17027 l 6.35638,6.89557 z"
       style="fill:#ccffaa;stroke:none" />
    <path
       id="path4309"
       d="m 610.31038,976.92758 3.94437,6.92389 c -0.0285,0.28378 -0.39728,0.3973 -0.70942,0.3973 -0.51079,0 -1.16344,-0.17028 -1.67422,-0.5108 l -3.23496,-6.78206 0.48241,0 c 0.39727,0 0.79455,0 1.19182,-0.0285 z"
       style="fill:#ccffaa;stroke:none" />
    <path
       id="path4307"
       d="m 638.60196,981.43942 c 0.34053,0.45404 -0.34052,0.87975 -1.27695,1.05001 -0.17025,0.0285 -0.34053,0.057 -0.51078,0.057 -0.0851,0 -0.14188,0 -0.19864,0 l -16.9409,-7.88874 c 0.19865,-0.11351 0.39728,-0.22702 0.56755,-0.34053 l 18.35972,7.12251 z"
       style="fill:#ccffaa;stroke:none" />
    <path
       id="path4303"
       d="m 646.77445,973.86287 c -0.31214,0.68107 -1.02155,0.96484 -1.67422,1.04994 l -22.02032,-3.12147 c 0.14187,-0.1986 0.28376,-0.39728 0.39727,-0.56746 l 22.50273,1.41879 c 0.62429,0.17027 1.07831,0.56756 0.79454,1.2202 z"
       style="fill:#ccffaa;stroke:none" />
    <path
       id="path4301"
       d="m 645.89479,972.27381 -22.24736,-1.39047 c 0.31215,-0.53921 0.45404,-0.93643 0.45404,-0.99317 l 0.0851,-0.25545 22.90001,0 c 0.28377,0.79458 0.42565,1.13511 0.36889,1.44722 -0.0851,0.65265 -0.82292,1.0216 -1.56071,1.19187 z"
       style="fill:#ccffaa;stroke:none" />
    <path
       id="path4297"
       d="m 607.75648,988.87411 -0.3689,-1.30528 c 0.31214,0.1135 0.65266,0.17026 1.02155,0.17026 0.19865,0 0.82293,-0.0285 1.27695,-0.36887 0.0567,0.0285 0.14189,0.057 0.19865,0.0851 l 0.62428,1.98636 c -0.22701,0.19869 -0.5959,0.31219 -0.87966,0.31219 -0.39729,0.0285 -1.33372,-0.31219 -1.87287,-0.87975 z"
       style="fill:#ccffaa;stroke:none" />
    <path
       id="path4295"
       d="m 613.03454,989.6971 c -0.90805,0 -1.92961,-0.42569 -2.32689,-0.96484 l -0.34051,-1.10668 c 0.34051,0.0851 0.62428,0.11351 0.85129,0.11351 0.53916,0 0.99319,-0.14193 1.33371,-0.36887 0.14189,0.057 0.28377,0.11351 0.39727,0.14185 l 0.87969,1.73099 c -0.0851,0.31211 -0.45403,0.45404 -0.79456,0.45404 z"
       style="fill:#ccffaa;stroke:none" />
    <path
       id="path4293"
       d="m 660.82093,972.47241 c -0.0284,-0.0851 -0.0851,-0.17027 -0.1135,-0.25536 0.25539,-0.3122 0.4824,-0.73782 0.56753,-1.36213 l 0,-0.0285 0,-0.057 0,-0.057 c 0,-0.42562 -0.1135,-0.76615 -0.28377,-1.04993 l 6.72528,0 c 0,0 0.34053,0.39729 0.19865,1.50398 -0.0851,0.73781 -0.48242,1.27695 -1.07833,1.58906 l -6.01586,-0.28378 z"
       style="fill:#ccffaa;stroke:none" />
    <path
       id="path4291"
       d="m 659.88451,974.82771 c 0.62428,-0.36895 0.87967,-0.87974 0.9648,-1.10669 0.0851,-0.22702 0.11351,-0.53921 0.0851,-0.85133 l 5.39159,0.22702 c 0.62428,0.25536 0.9648,0.87967 0.73779,1.44723 -0.14187,0.36887 -0.53916,0.70939 -0.99318,0.93641 l -6.101,-0.48237 c -0.0567,-0.0852 -0.0567,-0.14193 -0.0851,-0.17027 z"
       style="fill:#ccffaa;stroke:none" />
    <path
       id="path4289"
       d="m 659.48722,972.01836 -11.23717,-0.56755 c 0.0284,-0.0851 0.0567,-0.17019 0.0567,-0.25536 0.0567,-0.45404 -0.0567,-0.85132 -0.25539,-1.4188 -0.0285,-0.057 -0.0285,-0.0852 -0.0567,-0.14193 l 7.26444,0 0,0 0,0 4.54027,0 c 0.31215,0.14193 0.65266,0.45404 0.65266,1.04993 -0.0567,0.34054 -0.14188,1.10669 -0.96481,1.33371 z"
       style="fill:#ccffaa;stroke:none" />
    <path
       id="path4287"
       d="m 646.40556,985.52572 c -0.22701,0.1135 -0.51077,0.14184 -0.8513,0.14184 -0.39727,0 -0.8513,-0.0851 -1.33371,-0.1986 l -5.30644,-2.69583 c 0.28376,-0.19861 0.48241,-0.45396 0.56753,-0.73774 0.19864,0 0.34052,-0.0285 0.4824,-0.0285 l 6.52664,2.80926 c 0.19865,0.28378 0.17028,0.53914 -0.0851,0.7094 z"
       style="fill:#ccffaa;stroke:none" />
    <path
       id="path4285"
       d="m 659.68586,972.3589 c 0.45404,0.31211 0.48241,0.79457 0.3689,1.07835 -0.11351,0.31211 -0.45402,0.82291 -1.44721,0.87966 l -10.92504,-0.93642 c 0,-0.22702 -0.0851,-0.45404 -0.19863,-0.65273 -0.0285,-0.057 -0.0567,-0.1135 -0.11351,-0.17018 0.31214,-0.19868 0.53916,-0.45404 0.70942,-0.79457 l 11.60607,0.59589 z"
       style="fill:#ccffaa;stroke:none" />
    <path
       id="path4283"
       d="m 616.383,989.78219 c -0.82293,0 -1.64585,-0.39728 -2.24177,-0.85132 l -0.65266,-1.27695 c 0.2554,0.057 0.45402,0.057 0.59591,0.057 0.11351,0 0.82292,0 1.33371,-0.36886 0.22701,0.11351 0.51078,0.19868 0.82292,0.25536 l 0.96481,1.78775 c -0.14188,0.22702 -0.4824,0.39728 -0.82292,0.39728 z"
       style="fill:#ccffaa;stroke:none" />
    <path
       id="path4281"
       d="m 629.15252,986.6324 -2.66741,-1.78775 c 0.11351,-0.057 0.19864,-0.14184 0.28377,-0.22702 0.56753,0.22702 1.24858,0.39729 1.98636,0.39729 0.0567,0 0.14188,0 0.19864,0 0.19864,0 0.3689,-0.0285 0.51079,-0.0851 l 2.66741,1.84442 c -0.17027,0.14193 -0.53916,0.22702 -0.85131,0.22702 -0.73779,-0.057 -1.4472,-0.11351 -2.12825,-0.36887 z"
       style="fill:#ccffaa;stroke:none" />
    <path
       id="path4279"
       d="m 635.25351,987.05803 c -0.14189,0 -0.28377,0 -0.39727,0 -1.3337,0 -2.27013,-0.45404 -2.97955,-0.93642 0.11351,0.057 0.17025,0.14193 0.22701,0.1986 l -2.35526,-1.6174 c 0.1135,-0.0852 0.19862,-0.17027 0.28376,-0.25545 0.45403,0.14193 0.90806,0.22702 1.33371,0.22702 0.34052,0 0.68103,-0.057 0.9648,-0.17026 0,0 0,0 0.0285,0 0.0567,-0.0285 0.0851,-0.057 0.14188,-0.057 l 3.46195,2.18504 c -0.0567,0.25536 -0.34052,0.42562 -0.70942,0.42562 z"
       style="fill:#ccffaa;stroke:none" />
    <path
       id="path4277"
       d="m 643.00035,986.29187 c -0.22701,0.057 -0.4824,0.0851 -0.79455,0.0851 -0.73779,0 -1.67422,-0.17019 -2.38364,-0.45397 l -4.0295,-2.29855 c 0.11352,-0.0851 0.17027,-0.19859 0.22703,-0.28378 0.25538,0.057 0.51077,0.0852 0.76616,0.0852 0.22702,0 0.45403,-0.0285 0.68104,-0.057 0.42566,-0.0852 0.82293,-0.19869 1.1067,-0.36895 l 4.82404,2.46881 c 0.31214,0.31212 0.19864,0.62432 -0.39728,0.82292 z"
       style="fill:#ccffaa;stroke:none" />
    <path
       id="path4275"
       d="m 638.71547,986.80267 c -0.0851,0 -0.14188,0 -0.22701,0 -1.07832,0 -2.21339,-0.36895 -2.95118,-0.79458 0.0567,0.0285 0.11351,0.0852 0.17025,0.11352 l -2.89441,-1.84451 c 0.1135,-0.0851 0.19863,-0.19861 0.28376,-0.31211 0.42566,0.1135 0.87968,0.1986 1.27696,0.1986 0.17025,0 0.31214,0 0.45402,-0.0285 0.0285,0 0.0285,0 0.0567,0 0.28377,-0.0851 0.48241,-0.17027 0.65267,-0.28378 l 4.11462,2.3553 c 0.0567,0.31213 -0.28377,0.56756 -0.93644,0.59589 z"
       style="fill:#ccffaa;stroke:none" />
    <path
       id="path4273"
       d="m 620.29898,986.83117 c -0.3689,0 -1.27695,-0.0852 -1.81611,-0.36894 l -1.27695,-1.64583 c 0.0567,-0.0285 0.11352,-0.0851 0.14189,-0.1135 0.4824,0.25543 1.10669,0.48237 1.75935,0.48237 0.42565,0 0.76618,-0.1135 1.04993,-0.28369 l 1.16346,1.44714 c 0.0284,0.31219 -0.51078,0.48245 -1.02157,0.48245 z"
       style="fill:#ccffaa;stroke:none" />
    <path
       id="path4271"
       d="m 616.95053,986.83117 c -0.62429,0 -1.10669,-0.17026 -1.50397,-0.42569 l -0.87967,-1.58908 c 0.0285,-0.0285 0.0851,-0.057 0.1135,-0.0851 0.53916,0.22702 1.1067,0.36887 1.61748,0.36887 0.22701,0 0.42565,-0.057 0.62428,-0.14185 l 1.16346,1.53232 c -0.0852,0.25535 -0.59592,0.34052 -1.13508,0.34052 z"
       style="fill:#ccffaa;stroke:none" />
    <path
       id="path4269"
       d="m 627.50667,986.94469 c -0.45402,0 -1.5891,-0.0852 -2.41202,-0.48246 l -1.7026,-1.44714 c 0.0851,-0.057 0.17026,-0.14193 0.25538,-0.19869 0.53916,0.22702 1.1067,0.36887 1.61748,0.36887 0.17026,0 0.34052,0 0.51079,-0.0285 l 0.0284,0 c 0.14188,-0.0285 0.25539,-0.057 0.36889,-0.11344 l 2.24177,1.5039 c 0.0284,0.25544 -0.45403,0.39729 -0.90806,0.39729 z"
       style="fill:#ccffaa;stroke:none" />
    <path
       id="path6"
       d="m 623.76095,986.91619 c -0.39728,0 -1.19182,-0.11351 -1.84449,-0.42571 l -1.30532,-1.6174 c 0.56752,0.25536 1.13506,0.39721 1.73097,0.39721 0.0285,0 0.0567,0 0.0567,0 0.22702,0 0.45404,-0.057 0.65267,-0.11351 l 1.67422,1.41888 c -0.11349,0.22702 -0.59589,0.34053 -0.96479,0.34053 z"
       style="fill:#ccffaa;stroke:none" />
    <path
       id="path4569"
       d="m 598.76698,948.09575 -0.0285,0.0284 -0.90806,0.53916 0.11351,0.19864 0.48241,-0.34052 c 0,0 0.22701,0.28377 0.34052,0.19864 0.0567,-0.0567 0.34053,-0.3689 0,-0.6243 z"
       style="fill:#005500;stroke:none" />
    <text
       id="text4630-56"
       y="957.75256"
       x="602.63849"
       style="font-style:normal;font-weight:normal;font-size:16.25px;line-height:125%;font-family:sans-serif;letter-spacing:0px;word-spacing:0px;fill:#f4d7e3;fill-opacity:1;stroke:none;stroke-width:1px;stroke-linecap:butt;stroke-linejoin:miter;stroke-opacity:1"
       xml:space="preserve"><tspan
         style="font-style:normal;font-variant:normal;font-weight:normal;font-stretch:normal;font-size:3.75px;font-family:'Conduit Pro';-inkscape-font-specification:'Conduit Pro';fill:#f4d7e3"
         y="957.75256"
         x="602.63849"
         id="tspan4632-2">kerdār-e nik</tspan></text>
    <text
       id="text4630-56-9"
       y="950.84167"
       x="601.06421"
       style="font-style:normal;font-weight:normal;font-size:16.25px;line-height:125%;font-family:sans-serif;letter-spacing:0px;word-spacing:0px;fill:#dbe2e3;fill-opacity:1;stroke:none;stroke-width:1px;stroke-linecap:butt;stroke-linejoin:miter;stroke-opacity:1"
       xml:space="preserve"><tspan
         style="font-style:normal;font-variant:normal;font-weight:normal;font-stretch:normal;font-size:3.75px;font-family:'Conduit Pro';-inkscape-font-specification:'Conduit Pro';fill:#dbe2e3"
         y="950.84167"
         x="601.06421"
         id="tspan4632-2-1">goftār-e nik</tspan></text>
    <text
       id="text4630-56-2"
       y="943.2785"
       x="598.81134"
       style="font-style:normal;font-weight:normal;font-size:16.25px;line-height:125%;font-family:sans-serif;letter-spacing:0px;word-spacing:0px;fill:#ffd5d5;fill-opacity:1;stroke:none;stroke-width:1px;stroke-linecap:butt;stroke-linejoin:miter;stroke-opacity:1"
       xml:space="preserve"><tspan
         style="font-style:normal;font-variant:normal;font-weight:normal;font-stretch:normal;font-size:3.75px;font-family:'Conduit Pro';-inkscape-font-specification:'Conduit Pro';fill:#ffd5d5"
         y="943.2785"
         x="598.81134"
         id="tspan4632-2-7">pendār-e nik</tspan></text>
    <path
       id="path4589-0"
       d="m 594.29148,971.31186 c -0.19865,-2.49715 -0.47717,-6.32388 -0.59067,-8.50893 0.4824,2.07153 1.10669,4.17139 1.4756,5.93073 0.87966,4.19973 4.11462,13.84788 4.11462,13.84788 0.22701,0.79449 0.4824,1.2202 0.93643,1.24853 0.56753,-0.0285 1.02156,-0.73781 1.56071,-1.78774 0.51079,-1.07828 1.07832,-2.52549 1.64586,-4.14298 0.34051,-0.93642 0.68104,-1.9296 0.99318,-2.95119 0.0285,0.25544 0.0567,0.5108 0.0851,0.76616 0.34053,3.689 4.02911,18.6612 4.2845,20.73265 -1.27695,1.84451 -6.89515,3.38423 -9.33554,3.38423 -2.38365,0 -6.51699,-1.46469 -7.82233,-3.22402 0.0284,-0.19869 2.09017,-12.12446 2.11857,-12.32306 0,-0.0285 0,-0.0852 0.0285,-0.11351 0.0567,-0.48238 0.14189,-0.93642 0.19864,-1.39047 0,-0.057 0,-0.0851 0.0284,-0.14184 0.0567,-0.45404 0.1135,-0.90809 0.14189,-1.33371 l 0,-0.11352 c 0.0567,-0.45404 0.0851,-0.87965 0.1135,-1.30536 l 0,-0.0285 c 0,-0.0851 0,-0.17027 0.0284,-0.25536 l 0,-0.057 c 0.17026,-2.07153 0.19863,-3.97279 0.14189,-5.76046 l 0,0 0,0 c -0.005,-0.93605 -0.23318,-1.72799 -0.14725,-2.47253 z"
       style="fill:#ccffaa;stroke:none" />
    <g
       transform="translate(-8.5895873,5.8950197)"
       id="g4701">
      <text
         xml:space="preserve"
         style="font-style:normal;font-weight:normal;font-size:21.00060272px;line-height:70.99999785%;font-family:sans-serif;letter-spacing:0px;word-spacing:0px;fill:#554400;fill-opacity:1;stroke:none;stroke-width:1px;stroke-linecap:butt;stroke-linejoin:miter;stroke-opacity:1"
         x="632.64948"
         y="968.39856"
         id="text4263"><tspan
           x="632.64948"
           y="968.39856"
           style="font-style:normal;font-variant:normal;font-weight:normal;font-stretch:normal;font-size:5px;line-height:70.99999785%;font-family:'Akzidenz-Grotesk Pro';-inkscape-font-specification:'Akzidenz-Grotesk Pro';fill:#554400"
           id="tspan4605">alefbā-ye</tspan></text>
      <text
         xml:space="preserve"
         style="font-style:normal;font-weight:normal;font-size:21.00060272px;line-height:70.99999785%;font-family:sans-serif;letter-spacing:0px;word-spacing:0px;fill:#554400;fill-opacity:1;stroke:none;stroke-width:1px;stroke-linecap:butt;stroke-linejoin:miter;stroke-opacity:1"
         x="653.87152"
         y="964.16449"
         id="text4263-3"><tspan
           id="tspan4265-6"
           x="653.87152"
           y="964.16449"
           style="font-style:normal;font-variant:normal;font-weight:normal;font-stretch:normal;font-size:9.69258595px;line-height:70.99999785%;font-family:'Akzidenz-Grotesk Pro';-inkscape-font-specification:'Akzidenz-Grotesk Pro';fill:#554400" /><tspan
           x="653.87152"
           y="968.46863"
           style="font-style:normal;font-variant:normal;font-weight:normal;font-stretch:normal;font-size:5px;line-height:70.99999785%;font-family:'Akzidenz-Grotesk Pro';-inkscape-font-specification:'Akzidenz-Grotesk Pro';fill:#554400"
           id="tspan4605-7">dovvom</tspan></text>
    </g>
    <flowRoot
       transform="matrix(1.2923448,0,0,1.2923448,453.05289,880.51782)"
       style="font-style:normal;font-weight:normal;font-size:16.25px;line-height:125%;font-family:sans-serif;letter-spacing:0px;word-spacing:0px;fill:#000000;fill-opacity:1;stroke:none;stroke-width:1px;stroke-linecap:butt;stroke-linejoin:miter;stroke-opacity:1"
       id="flowRoot4222"
       xml:space="preserve"><flowRegion
         id="flowRegion4224"><rect
           y="47.810452"
           x="126.53352"
           height="33.444042"
           width="51.76371"
           id="rect4226" /></flowRegion><flowPara
         style="font-style:normal;font-variant:normal;font-weight:normal;font-stretch:normal;font-family:'Aria Pro';-inkscape-font-specification:'Aria Pro'"
         id="flowPara4228"><flowSpan
   id="flowSpan4257"
   style="font-style:italic;font-size:22.5px"> f</flowSpan>ārsi</flowPara></flowRoot>  </g>
</svg>
