<?xml version="1.0" encoding="UTF-8" standalone="no"?>
<svg
   xmlns:osb="http://www.openswatchbook.org/uri/2009/osb"
   xmlns:dc="http://purl.org/dc/elements/1.1/"
   xmlns:cc="http://creativecommons.org/ns#"
   xmlns:rdf="http://www.w3.org/1999/02/22-rdf-syntax-ns#"
   xmlns:svg="http://www.w3.org/2000/svg"
   xmlns="http://www.w3.org/2000/svg"
   xmlns:sodipodi="http://sodipodi.sourceforge.net/DTD/sodipodi-0.dtd"
   xmlns:inkscape="http://www.inkscape.org/namespaces/inkscape"
   version="1.1"
   id="svg2"
   viewBox="0 0 137.43523 59.624164"
   height="16.827263mm"
   width="38.787277mm"
   inkscape:version="0.91 r13725"
   sodipodi:docname="FarsiLogo.svg">
  <sodipodi:namedview
     pagecolor="#ffffff"
     bordercolor="#666666"
     borderopacity="1"
     objecttolerance="10"
     gridtolerance="10"
     guidetolerance="10"
     inkscape:pageopacity="0"
     inkscape:pageshadow="2"
     inkscape:window-width="1920"
     inkscape:window-height="1004"
     id="namedview109"
     showgrid="false"
     inkscape:zoom="1.3788313"
     inkscape:cx="160.37067"
     inkscape:cy="-16.430465"
     inkscape:window-x="0"
     inkscape:window-y="24"
     inkscape:window-maximized="1"
     inkscape:current-layer="layer1" />
  <defs
     id="defs4">
    <linearGradient
       osb:paint="solid"
       id="linearGradient6450">
      <stop
         id="stop6452"
         offset="0"
         style="stop-color:#000000;stop-opacity:1;" />
    </linearGradient>
  </defs>
  <metadata
     id="metadata7">
    <rdf:RDF>
      <cc:Work
         rdf:about="">
        <dc:format>image/svg+xml</dc:format>
        <dc:type
           rdf:resource="http://purl.org/dc/dcmitype/StillImage" />
        <dc:title />
      </cc:Work>
    </rdf:RDF>
  </metadata>
  <g
     transform="translate(-590.73462,-940.20703)"
     id="layer1">
    <g
       style="fill:#214478"
       transform="matrix(0.934694,0,0,0.84376907,95.710627,152.58895)"
       id="g5043">
      <path
         id="path6-3"
         d="m 563.71147,968.2225 c -6.01107,0.005 -12.02214,0.009 -18.03321,0.0156 -1.97031,5.35034 -2.93967,9.36908 -0.53541,14.39674 0.0467,3.79897 1.70246,11.38974 7.32643,9.40994 3.64203,0.3084 7.22785,0.096 10.83008,0.1289 3.8356,-0.1183 7.71751,-0.013 11.47265,-0.2403 2.382,0.4978 2.92113,-0.085 4.3418,-0.8886 -1.00562,0.7073 3.59813,1.7871 2.19407,-0.082 1.30764,1.4597 3.59417,-1.7617 1.94265,0.5217 3.81515,0.4846 7.05366,-1.7897 10.79883,-2.0195 2.10257,-1.1354 4.324,-1.9597 6.40234,-3.08205 2.3322,-1.79828 4.88717,-3.39513 6.61133,-5.84375 1.70318,-1.94163 2.7749,-4.52108 3.3125,-7.02539 1.83665,-3.19419 -0.88383,-6.94986 -4.69336,-5.27539 -13.97517,-0.0488 -28.00184,-0.0351 -41.9707,-0.0156 z m 36.67187,16.36718 c -0.70996,5.07392 -1.26678,-1.09471 0,0 z"
         style="fill:#214478;stroke:none" />
    </g>
    <path
       id="path4589"
       d="m 608.98724,976.17358 -4.13261,0.0133 c 0,0 0.002,-1.57713 0.052,-2.32158 0.4824,-1.47555 0.78089,-2.98478 1.23492,-4.20498 l 17.09096,-0.0133 c 0,0.057 -2.04313,6.52662 -14.24511,6.52662 z"
       style="fill:#003380;stroke:none" />
    <path
       id="path4603"
       d="m 614.99846,955.87097 c 0.22701,-0.0851 0.51078,-0.17025 0.65267,0.0567 0.14188,0.19864 -0.0851,0.42565 -0.39727,0.59591 0.19863,-0.0284 0.31214,-0.0851 0.39727,0.0851 0.14188,0.25538 -0.34053,0.62429 -0.59591,0.7378 0.19864,-0.11351 0.42565,-0.14189 0.4824,0.0567 0.0851,0.31214 -1.10669,1.02155 -1.84449,1.44721 -0.34052,0.31213 -1.36207,0.68104 -1.90124,0.79454 -0.14188,0.0284 -0.73779,0.0284 -1.27695,0.19863 -0.0567,-0.39727 -0.1135,-0.73779 -0.17026,-1.19181 -0.0284,-0.28376 -0.0567,-0.56753 -0.0851,-0.82293 0.25539,-0.28376 0.51078,-0.56753 0.68104,-0.8513 0,-0.0284 0.0284,-0.0284 0.0284,-0.0567 l 0,0 c 0.0285,-0.0284 0.0285,-0.0284 0.0567,-0.0567 0,0 0,0 0.0284,-0.0284 0.0285,-0.0284 0.17027,-0.17025 0.17027,-0.17025 0.0567,-0.0567 0.4824,-0.45403 0.87967,-0.53916 0.3689,-0.0851 0.70943,0 0.70943,0 0.25538,-0.0851 0.90805,-0.39728 1.33371,-0.59591 0,0 0.70941,-0.31214 0.87967,-0.14189 0.14188,0.14189 0.17026,0.31215 -0.0285,0.4824 z"
       style="fill:#0044aa;stroke:none" />
    <path
       id="path4599"
       d="m 600.89524,957.28981 c -0.14189,0.0567 -0.31215,0.0852 -0.42566,0.0852 -0.11351,0 -0.19864,-0.0285 -0.22701,-0.11352 -0.17026,-0.28377 -2.9228,-4.65378 -4.37002,-5.61859 0.19864,-0.39727 0.34052,-0.8513 0.53917,-1.44721 0.0285,-0.0851 0.0567,-0.14188 0.0567,-0.22701 0.11351,0.56753 0.51078,1.07831 1.53235,1.19182 0.34051,-0.0285 1.04994,-0.65267 1.67422,-0.90806 0.0567,0.19864 0.14188,0.39727 0.14188,0.5959 -0.0851,0.0285 -0.17025,0.0852 -0.25538,0.11352 0,0.0851 -0.0285,0.17025 -0.0285,0.25539 l 0,0 c 0.0852,0 0.19864,0 0.28377,0 0.76617,2.97955 1.53234,4.90917 1.61749,5.47671 0.0284,0.19863 0.0284,0.28376 -0.0285,0.31214 -0.14189,0.14189 -0.25538,0.17026 -0.51078,0.28377 z"
       style="fill:#003380;stroke:none" />
    <path
       id="path4595"
       d="m 612.95534,967.78918 c -0.0567,0 -0.14188,0 -0.19864,0 -0.0284,0 -0.0851,0 -0.1135,0 -0.0567,0 -0.0851,0 -0.14189,0 -0.0284,0 -0.0851,0 -0.1135,0 -0.0285,0 -0.0852,0 -0.11351,-0.0285 -0.0284,0 -0.0851,0 -0.11351,-0.0285 -0.0284,0 -0.0851,-0.0285 -0.1135,-0.0285 -0.0285,0 -0.0851,-0.0285 -0.11352,-0.0285 -0.0284,0 -0.0851,-0.0285 -0.1135,-0.0285 -0.0284,0 -0.0851,-0.0285 -0.11351,-0.0285 -0.0284,0 -0.0851,-0.0285 -0.1135,-0.0285 -0.0284,0 -0.0567,-0.0285 -0.11351,-0.0285 -0.0285,-0.0285 -0.0567,-0.0285 -0.1135,-0.057 -0.0285,-0.0285 -0.0567,-0.0285 -0.11352,-0.057 -0.0284,-0.0285 -0.0567,-0.0285 -0.11349,-0.057 -0.0285,-0.0285 -0.0567,-0.0285 -0.0851,-0.057 -0.0285,-0.0285 -0.0567,-0.0285 -0.0852,-0.057 -0.0284,-0.0285 -0.0567,-0.0285 -0.0851,-0.057 -0.0284,-0.0285 -0.0567,-0.057 -0.0851,-0.057 -0.0284,-0.0285 -0.0567,-0.057 -0.0851,-0.057 -0.0285,-0.0285 -0.0567,-0.057 -0.0851,-0.0851 -0.0285,-0.0285 -0.0567,-0.057 -0.0851,-0.0851 -0.0284,-0.0285 -0.0567,-0.057 -0.0851,-0.0852 -0.0284,-0.0285 -0.0567,-0.057 -0.0851,-0.0851 -0.0285,-0.0285 -0.0567,-0.057 -0.0851,-0.0852 -0.0285,-0.0285 -0.0567,-0.057 -0.0852,-0.0851 -0.0284,-0.0285 -0.0567,-0.057 -0.0851,-0.0852 -0.0284,-0.0285 -0.0567,-0.057 -0.0567,-0.0851 -0.0284,-0.0285 -0.0567,-0.0852 -0.0851,-0.11351 0,-0.0285 -0.0284,-0.0285 -0.0284,-0.057 0,0 0.45403,-0.057 0.76617,-0.057 0.31214,0 0.53915,0.057 0.59591,0.0851 l 0,0 c 0.0285,0.0285 0.0285,0.0285 0.0567,0.057 0.0284,0.0285 0.0567,0.057 0.1135,0.0852 0.0285,0.0285 0.0567,0.0285 0.0851,0.057 0.0284,0.0285 0.0851,0.0285 0.11351,0.057 0.0284,0.0285 0.0567,0.0285 0.0851,0.057 0.0284,0.0285 0.0851,0.0285 0.1135,0.057 0.0285,0 0.0567,0.0285 0.0851,0.0285 0.0284,0.0285 0.0851,0.0285 0.11351,0.0285 0.0284,0 0.0567,0.0285 0.0851,0.0285 0.0284,0 0.0851,0.0285 0.1135,0.0285 0.0284,0 0.0567,0.0285 0.11352,0.0285 0.0284,0 0.0851,0 0.11349,0.0285 0.0285,0 0.0567,0 0.11352,0 0.0284,0 0.0851,0 0.14188,0 0.0284,0 0.0567,0 0.0567,0 0.0284,0 0.0567,0 0.0851,0 0,0 0,0 0.0284,0 1.3337,-0.057 2.35526,-1.16345 2.2985,-2.49716 l 0,0 c 0,-0.0852 0,-0.17026 -0.0284,-0.25543 0,-0.0285 0,-0.0285 0,-0.057 0,-0.057 -0.0284,-0.1135 -0.0284,-0.17026 0,-0.0285 0,-0.057 -0.0285,-0.057 -0.0284,-0.057 -0.0284,-0.1135 -0.0567,-0.17026 0,-0.0285 -0.0284,-0.057 -0.0284,-0.057 -0.0284,-0.057 -0.0284,-0.0851 -0.0567,-0.14184 0,-0.0285 -0.0284,-0.057 -0.0284,-0.0852 -0.0285,-0.057 -0.0567,-0.0851 -0.0567,-0.14184 0,-0.0285 -0.0284,-0.057 -0.0567,-0.057 -0.0284,-0.0285 -0.0567,-0.0851 -0.0851,-0.11351 -0.0284,-0.0285 -0.0284,-0.057 -0.0567,-0.057 -0.0284,-0.0285 -0.0567,-0.0851 -0.0851,-0.11351 -0.0284,-0.0285 -0.0284,-0.0285 -0.0567,-0.057 -0.0284,-0.0285 -0.0567,-0.0567 -0.1135,-0.11352 -0.0284,-0.0284 -0.0567,-0.0284 -0.0567,-0.0567 -0.0284,-0.0284 -0.0851,-0.0567 -0.1135,-0.0851 -0.0285,-0.0284 -0.0567,-0.0284 -0.0567,-0.0567 -0.0285,-0.0284 -0.0851,-0.0567 -0.11351,-0.0851 -0.0284,-0.0284 -0.0567,-0.0284 -0.0851,-0.0567 -0.0284,-0.0284 -0.0851,-0.0567 -0.1135,-0.0567 -0.0284,0 -0.0567,-0.0285 -0.0851,-0.0285 -0.0567,-0.0284 -0.0851,-0.0284 -0.14189,-0.0567 -0.0284,0 -0.0567,-0.0285 -0.0851,-0.0285 -0.0567,-0.0284 -0.0851,-0.0284 -0.14189,-0.0567 -0.0285,0 -0.0567,-0.0284 -0.0851,-0.0284 -0.0567,0 -0.0851,-0.0284 -0.14188,-0.0284 -0.0285,0 -0.0567,0 -0.0851,0 -0.0567,0 -0.0851,0 -0.14189,-0.0285 -0.0284,0 -0.0567,0 -0.0851,0 -0.0284,0 -0.0567,0 -0.0851,0 -0.0285,0 -0.0567,0 -0.0851,0 -0.76617,0.0285 -1.41884,0.39727 -1.84449,0.96484 -0.3689,0.0285 -0.87967,0.1135 -1.27695,0.28377 0.45402,-1.27699 1.64585,-2.21341 3.06468,-2.27017 0.0851,0 0.17026,0 0.2554,0 0.0567,0 0.0851,0 0.14187,0 0.0567,0 0.14189,0 0.19864,0.0284 0.0567,0 0.0851,0 0.14188,0.0284 0.0567,0 0.14189,0.0284 0.19865,0.0284 0.0567,0 0.0851,0.0284 0.14188,0.0284 0.0567,0.0284 0.11351,0.0284 0.19863,0.0567 0.0284,0.0284 0.0851,0.0284 0.11352,0.0567 0.0567,0.0284 0.11349,0.0567 0.17025,0.0851 0.0285,0.0284 0.0851,0.0284 0.11352,0.0567 0.0567,0.0284 0.11349,0.0567 0.17025,0.0851 0.0284,0.0284 0.0851,0.0567 0.11351,0.0567 0.0567,0.0284 0.1135,0.0567 0.14188,0.11351 0.0284,0.0284 0.0851,0.0567 0.11351,0.0851 0.0567,0.0284 0.0851,0.0851 0.14189,0.11349 0.0284,0.0285 0.0567,0.0567 0.1135,0.0852 0.0567,0.0567 0.0851,0.0851 0.14188,0.14187 0.0284,0.0284 0.0567,0.0567 0.0851,0.0851 0.0285,0.0567 0.0851,0.0851 0.11351,0.14188 0.0284,0.0284 0.0567,0.0567 0.0851,0.1135 0.0285,0.0567 0.0567,0.11351 0.1135,0.17026 0.0284,0.0284 0.0567,0.0851 0.0851,0.11351 0.0284,0.0567 0.0567,0.11348 0.0851,0.17024 0.0285,0.0285 0.0567,0.0852 0.0567,0.1135 0.0284,0.057 0.0567,0.11352 0.0851,0.17027 0.0284,0.0285 0.0284,0.0852 0.0567,0.11351 0.0284,0.057 0.0284,0.14193 0.0567,0.19869 0,0.0285 0.0284,0.0851 0.0284,0.11351 0.0284,0.0851 0.0284,0.14184 0.0567,0.22702 0,0.0285 0,0.057 0.0285,0.11343 0.0284,0.1135 0.0284,0.22702 0.0284,0.34053 0,1.90126 -1.4472,3.49033 -3.32007,3.54708 z"
       style="fill:#003380;stroke:none" />
    <path
       id="path4587"
       d="m 601.179,961.65983 c 0,0 -2.69579,-8.34275 -5.70372,-8.34275 -0.1135,0 -0.22702,0 -0.34051,0.0284 -0.14189,0.0285 -0.68105,0.28376 -0.79456,0.31214 l -0.0567,-0.34052 c 0.31214,-0.22702 1.10669,-0.7378 1.30533,-1.19183 1.30533,0.90806 3.60384,4.37003 4.37001,5.64698 0.0567,0.11351 0.22702,0.28377 0.56754,0.28377 0.19863,0 0.39727,-0.0567 0.59591,-0.14189 0.28377,0.70942 0.56753,2.58228 0.79455,3.4052 1.7026,-0.65265 6.83879,-3.20656 7.9171,-3.63221 0.0851,0.90806 0.19864,1.98636 0.36889,2.63903 0,0.8513 -2.55389,2.49711 -2.63902,3.51871 l -6.38477,-2.185 z"
       style="fill:#003380;stroke:none" />
    <path
       id="path4585"
       d="m 590.73461,942.47716 0.65268,0.34053 0.25539,-0.70943 0.76617,0.3689 0.42565,-0.70941 0.70942,0.3689 0.34052,-0.62429 0.65266,0.31215 0.34053,-0.56754 0.65266,0.31214 0.36889,-0.68104 0.65267,0.31214 0.34052,-0.62428 0.70942,0.34051 0.42565,-0.70941 0,0 0.73779,3.7741 -6.35638,1.81612 -1.67424,-3.32009 z"
       style="fill:#003380;stroke:none" />
    <path
       id="path4583"
       d="m 592.49572,946.05264 6.27126,-1.81611 0.17026,0.53915 -6.24287,1.84449 -0.19865,-0.56753 z"
       style="fill:#003380;stroke:none" />
    <path
       id="path4581"
       d="m 599.30613,946.84718 0,0 c 0,0 -1.70259,0.4824 -2.75253,1.73098 0,0 0,0 0.0284,0 0,0 -0.0284,0.1135 -0.0851,0.31214 -0.0851,0.25539 -0.19864,0.7378 -0.36889,1.24858 -0.17027,0.56753 -0.62429,1.53234 -0.62429,1.50397 -0.11351,0.3689 -0.45403,0.73779 -0.45403,0.73779 l 0,0 c -0.34052,0.34052 -0.76618,0.4824 -1.39046,0.68105 0,0 0,0 -0.0284,0 -0.0284,0 -0.0567,0 -0.0851,0.0284 l -0.0284,0 c -0.0285,0 -0.0567,0 -0.0567,0 -0.0284,0 -0.0284,0 -0.0567,0 -0.0284,0 -0.0284,0 -0.0567,0 -0.0284,0 -0.0284,0 -0.0567,0 -0.0285,0 -0.0285,0 -0.0567,-0.0284 -0.0285,0 -0.0285,0 -0.0567,-0.0284 -0.0284,-0.0284 -0.0284,-0.0284 -0.0567,-0.0284 -0.0284,0 -0.0284,-0.0285 -0.0567,-0.0285 -0.0284,0 -0.0284,-0.0285 -0.0567,-0.0285 -0.0284,0 -0.0284,-0.0284 -0.0567,-0.0284 -0.0284,0 -0.0284,-0.0284 -0.0567,-0.0284 -0.0284,0 -0.0284,-0.0285 -0.0567,-0.0285 -0.0284,0 -0.0284,-0.0284 -0.0567,-0.0567 -0.0285,-0.0285 -0.0285,-0.0285 -0.0567,-0.0567 -0.0284,-0.0284 -0.0284,-0.0284 -0.0567,-0.0567 -0.0284,-0.0284 -0.0284,-0.0284 -0.0567,-0.0567 -0.0284,-0.0284 -0.0284,-0.0284 -0.0567,-0.0567 -0.0285,-0.0284 -0.0285,-0.0284 -0.0567,-0.0567 -0.0285,-0.0285 -0.0285,-0.0285 -0.0567,-0.0567 -0.0284,-0.0284 -0.0284,-0.0284 -0.0567,-0.0567 -0.0284,-0.0284 -0.0284,-0.0284 -0.0567,-0.0567 -0.0285,-0.0285 -0.0285,-0.0567 -0.0567,-0.0567 -0.0284,-0.0284 -0.0284,-0.0567 -0.0567,-0.0567 -0.0284,-0.0284 -0.0284,-0.0567 -0.0567,-0.0851 -0.0284,-0.0285 -0.0284,-0.0567 -0.0567,-0.0567 -0.0284,-0.0567 -0.0567,-0.0851 -0.0851,-0.14188 -0.0284,-0.0284 -0.0284,-0.0567 -0.0567,-0.0851 -0.0284,-0.0285 -0.0284,-0.0567 -0.0567,-0.0851 0,-0.0284 -0.0285,-0.0567 -0.0285,-0.0851 0,-0.0284 -0.0284,-0.0567 -0.0284,-0.0851 0,-0.0284 -0.0284,-0.0567 -0.0284,-0.0851 0,-0.0284 -0.0285,-0.0567 -0.0285,-0.0851 0,-0.0285 -0.0284,-0.0567 -0.0284,-0.0851 0,-0.0285 -0.0284,-0.0567 -0.0284,-0.0851 0,-0.0284 -0.0285,-0.0567 -0.0285,-0.0851 0,-0.0284 -0.0284,-0.0567 -0.0284,-0.0851 0,-0.0284 -0.0284,-0.0567 -0.0284,-0.0851 0,-0.0284 -0.0285,-0.0567 -0.0285,-0.0851 0,-0.0284 -0.0285,-0.0567 -0.0285,-0.0851 0,-0.0284 -0.0284,-0.0567 -0.0284,-0.0851 0,-0.0285 -0.0285,-0.0567 -0.0285,-0.0851 0,-0.0285 0,-0.0567 -0.0284,-0.0851 0,-0.0284 0,-0.0567 -0.0285,-0.0851 0,-0.0285 0,-0.0567 0,-0.0851 0,-0.0284 0,-0.0567 0,-0.0851 0,-0.0284 0,-0.0567 0,-0.0851 0,-0.0285 0,-0.0567 0,-0.0852 0,-0.0284 0,-0.0567 0,-0.0851 0,-0.0284 0,-0.0567 0,-0.0851 0,-0.0284 0,-0.0567 0,-0.0567 0,-0.0284 0,-0.0567 0,-0.0851 0,-0.0284 0,-0.0284 0,-0.0567 0.0285,-0.22701 0.0852,-0.39727 0.22702,-0.56754 0.82292,-1.04994 0.7378,-1.41882 1.2202,-2.29851 0.0284,-0.0567 0.0567,-0.0851 0.0851,-0.14188 l 5.95912,-1.61748 0,0 c 0,0 0.0284,0 0.0851,0 0.14188,0.11352 0.59591,-0.0284 0.68104,1.1067 0,0.14188 -0.0851,0.28377 -0.22702,0.39727 -0.0851,0.11351 -0.14188,0.14189 -0.19864,0.17026 z"
       style="fill:#003380;stroke:none" />
    <path
       id="path4577"
       d="m 595.58879,968.38515 c -0.22701,-1.04994 -0.51078,-2.21338 -0.82293,-3.40524 -0.99319,-3.85924 -2.12825,-8.25763 -0.93643,-10.21562 0.31214,-0.51078 0.79455,-0.82292 1.44722,-0.96481 0.0851,-0.0284 0.17025,-0.0284 0.25538,-0.0284 2.18501,0 4.56866,5.81723 5.27808,8.05899 0.0284,0.14189 0.14187,0.22702 0.28376,0.28377 l 6.61178,2.27012 c 0.0567,0.17026 0.22702,1.50397 -3.32008,7.51987 -1.22019,2.07144 -2.01475,3.17813 -2.61066,4.00112 -0.79455,1.10669 -1.27696,1.78767 -1.95799,3.60385 -0.19863,0.51079 -0.31215,1.04993 -0.39727,1.56072 -1.1067,-3.12145 -3.06469,-9.05218 -3.83086,-12.68443 z"
       style="fill:#003380;stroke:none" />
    <path
       id="path4575"
       d="m 607.96103,964.3556 0.0851,-0.0851 c 0.45403,-0.0852 1.04994,-0.5108 1.4756,-0.70941 0.34051,-0.17026 1.4472,-0.4257 1.87286,-0.28378 0.28377,0.11352 0.62428,0.17028 0.68104,0.85126 0.0284,0.5108 -0.0567,0.90808 -0.0567,1.2202 0,0.11351 -0.36889,0.53921 -0.53915,0.70948 -1.50397,-0.48246 -3.14982,0.79449 -4.00112,0.62423 0.36891,-0.56748 0.8513,-2.18496 0.4824,-2.32689 z"
       style="fill:#0044aa;stroke:none" />
    <path
       id="path4573"
       d="m 604.69771,972.10249 c 0.25539,-0.39729 0.45404,-0.79457 0.68105,-1.16344 -1.27695,3.63217 -2.69578,8.28595 -3.88761,10.72634 -0.51079,1.04993 -1.02157,1.67425 -1.27696,1.61749 -0.14188,0.0285 -0.36889,-0.19861 -0.56753,-0.7945 0.0285,-0.70947 0.17026,-1.87292 0.53916,-2.8661 1.13506,-3.12146 1.67423,-2.72417 4.51189,-7.51979 z"
       style="fill:#003380;stroke:none" />
    <path
       id="path4571"
       d="m 600.12906,949.88349 0,0 c -0.4824,0.0285 -1.02156,0.3689 -1.50396,0.68104 -0.22702,0.14188 -0.51079,0.34052 -0.65267,0.3689 -0.51078,-0.0567 -0.8513,-0.25539 -1.04993,-0.56754 -0.28377,-0.45402 -0.22703,-1.04993 -0.14189,-1.39046 0.0285,-0.1135 0.0567,-0.19862 0.0567,-0.19862 l 0,0 0,0 0,0 0,0 c 0,-0.0285 0.0284,-0.0567 0.0284,-0.0567 0.62428,-0.87969 1.44721,-1.1067 2.01475,-1.27695 0.17026,-0.0567 0.34051,-0.11352 0.4824,-0.17026 0,0.19863 0,0.39727 0,0.59591 0,0 0,0.25538 0.17026,0.62429 0.17026,0.34051 0.82292,1.24857 0.87968,1.36207 l 0,0 -0.22701,0.0567 c 0,-0.0284 -0.0285,-0.0284 -0.0567,-0.0284 z"
       style="fill:#2c5aa0;stroke:none" />
    <path
       id="path4555"
       d="m 655.2591,979.93464 -10.244,-2.21346 c 0.45403,-0.22694 0.7378,-0.56747 0.93643,-0.87966 l 10.47101,1.73099 c 0.3689,0.34054 0.2554,0.73782 0.0851,0.93643 -0.17026,0.14192 -0.56753,0.39728 -1.24857,0.4257 z"
       style="fill:#003380;stroke:none" />
    <path
       id="path4549"
       d="m 647.54063,974.20252 c 0.0852,-0.17026 0.11351,-0.34054 0.14188,-0.5108 l 11.0953,0.96484 c 0.31215,0.28378 0.39728,0.65265 0.28377,0.87967 -0.14188,0.36887 -0.59591,0.76615 -1.30533,0.82291 l -10.9818,-1.2202 c 0.34053,-0.22703 0.59592,-0.53914 0.76618,-0.93642 z"
       style="fill:#003380;stroke:none" />
    <path
       id="path4547"
       d="m 656.56442,978.2604 -10.471,-1.731 c 0,-0.0285 0.0284,-0.057 0.0284,-0.0852 0.1135,-0.31211 0.1135,-0.62423 0,-0.93642 0.0851,-0.0285 0.17025,-0.0851 0.25539,-0.11351 l 11.3223,1.27695 c 0.3689,0.34053 0.39728,0.82299 0.22702,1.04993 -0.28376,0.34053 -0.70942,0.5108 -1.36209,0.53922 z"
       style="fill:#003380;stroke:none" />
    <path
       id="path4507"
       d="m 611.21843,986.91505 c -0.36889,0 -1.0783,-0.14193 -1.53235,-0.5108 l -0.51077,-1.61748 c 0.0285,-0.0285 0.0567,-0.057 0.11351,-0.0851 0.42565,0.1986 0.90805,0.31211 1.36207,0.31211 0.2554,0 0.56754,-0.057 0.85131,-0.17027 l 0.79455,1.56073 c -0.0851,0.31211 -0.53916,0.5108 -1.07832,0.5108 z"
       style="fill:#003380;stroke:none" />
    <path
       id="path4437"
       d="m 655.91176,980.7008 c 0.65266,-0.14193 1.02156,-0.45404 1.19182,-0.62432 0.11351,-0.1135 0.19864,-0.25535 0.28377,-0.39728 l 4.59703,0.90808 c 0.25539,0.31211 0.17026,0.76616 -0.17026,1.04993 -0.31215,0.28378 -0.93643,0.48239 -1.61747,0.5108 l -4.34164,-1.07834 c 0.0285,-0.11352 0.0567,-0.22703 0.0567,-0.36887 z"
       style="fill:#003380;stroke:none" />
    <path
       id="path4431"
       d="m 617.43293,988.9584 -0.70941,-1.27695 c 0.0851,0 0.14188,0 0.22701,0 0.65267,0 1.13508,-0.11352 1.47559,-0.34054 0.45403,0.17028 0.93644,0.25537 1.30533,0.28378 l 1.1067,1.4188 c 0.0567,0.36895 -0.34053,0.68107 -1.07832,0.68107 -0.79455,0 -1.61747,-0.28378 -2.3269,-0.76616 z"
       style="fill:#003380;stroke:none" />
    <path
       id="path4415"
       d="m 640.27618,986.94483 c 0.65268,0.17026 1.33371,0.25544 1.92962,0.25544 0.3689,0 0.70943,-0.0285 0.99318,-0.11351 l 0.0284,0 0.0284,0 c 0.0284,0 0.0567,-0.0285 0.0851,-0.0285 l 2.21339,1.24853 c 0.0284,0.42571 -0.62429,0.73782 -1.47559,0.73782 -0.82293,0.057 -1.98638,-0.14193 -3.00793,-0.56755 l -1.56073,-0.99318 c 0.34053,-0.1135 0.59592,-0.31211 0.76617,-0.53913 z"
       style="fill:#003380;stroke:none" />
    <path
       id="path4413"
       d="m 644.24893,986.34894 c 0.4824,0.11351 0.90806,0.17027 1.30533,0.17027 0.45402,0 0.87968,-0.0852 1.19182,-0.22702 l 0.0567,-0.0285 0.0567,-0.0285 c 0.0284,0 0.0284,-0.0285 0.0567,-0.057 l 2.0715,1.04993 c 0.14189,0.36887 -0.39728,0.68106 -0.96481,0.82291 -0.48241,0.14193 -1.39046,0.17027 -2.185,-0.057 l -2.04313,-1.16344 c 0.22701,-0.14185 0.3689,-0.31211 0.45402,-0.48239 z"
       style="fill:#003380;stroke:none" />
    <path
       id="path4411"
       d="m 620.29898,987.65423 c 0.28377,0 0.87968,-0.0285 1.33371,-0.36887 0.62429,0.28378 1.30533,0.39729 1.75936,0.42562 l 1.10668,1.36214 c 0.0567,0.42561 -0.76617,0.59589 -1.3337,0.59589 -0.56753,0 -1.13506,-0.17028 -1.67423,-0.42563 l -1.22019,-1.58915 c 0.0284,0 0.0284,0 0.0284,0 z"
       style="fill:#003380;stroke:none" />
    <path
       id="path4409"
       d="m 650.46343,984.05039 c 0.87968,-0.057 1.5891,-0.31211 2.09988,-0.79449 0.11351,-0.11352 0.22702,-0.22702 0.31215,-0.34054 l 3.7741,1.3053 c 0.45402,0.48246 -0.11351,1.04993 -0.82293,1.36212 -0.31214,0.14185 -1.13507,0.31212 -1.95799,0.31212 l -3.46196,-1.50398 c 0,-0.0851 0.0567,-0.1986 0.0567,-0.34053 z"
       style="fill:#003380;stroke:none" />
    <path
       id="path4405"
       d="m 653.0741,982.48975 c 0.87966,0 1.67422,-0.25545 2.185,-0.62432 0.17026,-0.1135 0.28377,-0.28377 0.39727,-0.4257 l 4.11462,1.02159 c 0.17026,0.34054 0,0.79458 -0.36889,1.13512 -0.3689,0.34044 -1.1067,0.51071 -1.78774,0.56746 l -4.54026,-1.58906 c -0.0285,-0.0285 0,-0.057 0,-0.0851 z"
       style="fill:#003380;stroke:none" />
    <path
       id="path4403"
       d="m 647.39875,985.49761 c 0.19863,0.0285 0.3689,0.0285 0.53916,0.0285 0.90805,0 1.58909,-0.1986 2.01474,-0.56747 0.0567,-0.057 0.1135,-0.11352 0.17026,-0.17026 l 2.86604,1.22019 c 0.45403,0.3972 -0.19862,0.908 -0.90805,1.10669 -0.59591,0.1986 -1.50396,0.1986 -2.32689,0.0851 l -2.5539,-1.30529 c 0.1135,-0.11351 0.17026,-0.25544 0.19864,-0.39729 z"
       style="fill:#003380;stroke:none" />
    <path
       id="path4401"
       d="m 627.50667,987.76774 c 0.56754,0 1.02156,-0.14185 1.33371,-0.36887 0.62429,0.22702 1.2202,0.34054 1.75936,0.36887 l 1.78772,1.19186 c -0.0284,0.34054 -0.70942,0.65265 -1.39046,0.65265 -0.31214,0 -0.99318,-0.057 -1.70259,-0.31211 l -1.78774,-1.5324 0,0 z"
       style="fill:#003380;stroke:none" />
    <path
       id="path4399"
       d="m 625.12303,987.37054 c 0.59591,0.22694 1.24858,0.31211 1.70261,0.36887 l 1.61746,1.36204 c 0,0.39728 -0.82292,0.53921 -1.73098,0.53921 -0.45402,0 -1.04994,-0.14193 -1.61747,-0.39728 l -1.19182,-1.47564 c 0.34052,-0.0285 0.8513,-0.11351 1.2202,-0.3972 z"
       style="fill:#003380;stroke:none" />
    <path
       id="path4397"
       d="m 636.53046,987.34204 c 0.65267,0.19861 1.33371,0.31213 1.958,0.31213 0.0851,0 0.19864,0 0.28376,0 0.0851,0 0.14189,0 0.22701,-0.0285 l 2.04313,1.27696 c -0.14188,0.28377 -0.65266,0.45404 -1.19182,0.48237 -0.48241,0.0285 -1.5891,-0.1135 -2.5539,-0.45404 l -1.58911,-1.10669 c 0.34053,-0.057 0.6243,-0.22702 0.82293,-0.48238 z"
       style="fill:#003380;stroke:none" />
    <path
       id="path4395"
       d="m 632.52935,987.45556 c 0.62428,0.25535 1.36208,0.45396 2.29851,0.45396 0.0852,0 0.14188,0 0.22702,0 l 1.64584,1.10669 c -0.0567,0.31219 -0.56753,0.53921 -1.19182,0.53921 -0.31213,0 -1.16345,-0.0852 -1.95798,-0.31219 l -2.21339,-1.47556 c 0.25539,0.0285 0.79455,-0.0285 1.19182,-0.31211 z"
       style="fill:#003380;stroke:none" />
    <path
       id="path4379"
       d="m 657.50086,978.97084 c 0.42565,-0.14184 0.79454,-0.36887 1.07831,-0.68098 l 0,-0.057 0.0285,-0.0285 c 0.14188,-0.19868 0.22701,-0.42571 0.25538,-0.65264 l 4.93755,0.73773 c 0.39727,0.31221 0.62429,0.9081 0.22701,1.36214 -0.31214,0.34052 -0.76617,0.59589 -1.30532,0.68098 l -5.22132,-1.04993 c 0,-0.11352 0,-0.22703 0,-0.31212 z"
       style="fill:#003380;stroke:none" />
    <path
       id="path4377"
       d="m 613.54533,985.10025 c 0.28377,0 0.53915,-0.057 0.76617,-0.14184 l 0.82292,1.53231 c -0.14189,0.28378 -0.70942,0.39728 -1.04994,0.39728 -0.34051,0 -0.93643,-0.14193 -1.39045,-0.39728 l -0.90806,-1.81609 0,0 c 0.56754,0.28378 1.2202,0.42562 1.75936,0.42562 z"
       style="fill:#003380;stroke:none" />
    <path
       id="path4349"
       d="m 658.80619,976.92758 c 0.53915,-0.25545 0.87967,-0.65265 1.04994,-1.07836 0.0851,-0.14185 0.1135,-0.31211 0.1135,-0.48237 l 5.16457,0.39728 c 0.62428,0.25537 1.02156,1.02152 0.59591,1.58907 -0.31214,0.34053 -0.68104,0.53913 -1.07832,0.65264 l -5.78885,-0.85124 c -0.0284,-0.0852 -0.0284,-0.14193 -0.0567,-0.22702 z"
       style="fill:#003380;stroke:none" />
    <path
       id="path4347"
       d="m 635.02649,982.1489 c 0.45403,0.39729 0.56754,0.87966 -0.34051,1.13503 -0.0851,0.0285 -0.19864,0.0285 -0.31214,0.0285 -0.28377,0 -0.65267,-0.057 -0.99319,-0.14185 l -14.78426,-7.94549 c 0.25539,-0.11351 0.51077,-0.22702 0.73778,-0.36887 l 15.69232,7.29277 z"
       style="fill:#003380;stroke:none" />
    <path
       id="path4345"
       d="m 626.22972,983.65288 c 0.0567,0.28369 -0.17026,0.53913 -0.59591,0.65263 -0.11351,0.0285 -0.25539,0.0285 -0.3689,0.0285 -0.3689,0 -0.73779,-0.0852 -1.10669,-0.22702 l 0.0284,-0.0285 -8.7684,-7.80356 c 0.25538,-0.057 0.4824,-0.11351 0.73779,-0.19869 l 10.07374,7.57664 z"
       style="fill:#003380;stroke:none" />
    <path
       id="path4343"
       d="m 632.41584,983.02856 c 0.14189,0.28378 -0.0285,0.59589 -0.3689,0.73782 -0.19862,0.0851 -0.42564,0.11344 -0.65266,0.11344 -0.31213,0 -0.65266,-0.057 -0.99319,-0.1702 l -12.79789,-8.05899 c 0.22701,-0.0852 0.42565,-0.17028 0.62429,-0.25545 l 14.18835,7.63338 z"
       style="fill:#003380;stroke:none" />
    <path
       id="path4341"
       d="m 629.40791,983.45419 c 0.14189,0.34053 0,0.65265 -0.51079,0.68106 -0.0567,0 -0.11349,0 -0.17025,0 -0.68104,0 -1.33371,-0.19868 -1.90123,-0.42563 l -10.32913,-7.71847 c 0.25539,-0.0852 0.4824,-0.14193 0.70941,-0.22702 l 12.20199,7.69006 z"
       style="fill:#003380;stroke:none" />
    <path
       id="path4339"
       d="m 640.44645,979.33955 c 0.8513,0.42571 1.5891,1.0216 0.17026,1.70266 -0.11351,0.057 -0.73779,0.11351 -1.73098,0.17027 l -18.33135,-7.12259 c 0.19863,-0.14192 0.36889,-0.25544 0.53916,-0.39729 l 19.35291,5.64695 z"
       style="fill:#003380;stroke:none" />
    <path
       id="path4337"
       d="m 642.68822,977.21136 c 0.65265,0.28376 1.19182,0.908 0.79453,1.50397 -0.36889,0.53913 -0.90805,0.68098 -1.53234,0.68098 -0.0851,0 -0.17025,0 -0.25539,0 L 621.40567,973.494 c 0.22702,-0.17026 0.42566,-0.36895 0.6243,-0.53922 l 20.65825,4.25658 z"
       style="fill:#003380;stroke:none" />
    <path
       id="path4335"
       d="m 651.99577,982.65961 c -0.45402,0.3973 -1.0783,0.56756 -1.84448,0.56756 -0.28376,0 -0.56753,-0.0285 -0.87968,-0.0851 l -7.09417,-2.49716 c 0.0567,-0.14193 0.0567,-0.25543 0.0567,-0.39728 l 0,-0.0285 c 0.70942,-0.057 1.24857,-0.31211 1.67423,-0.76615 l 8.31437,2.55391 c 0.11352,0.25536 -0.0284,0.48238 -0.22701,0.65264 z"
       style="fill:#003380;stroke:none" />
    <path
       id="path4333"
       d="m 647.96628,984.67438 c -0.42565,0 -0.87968,-0.057 -1.30532,-0.14184 l -6.07262,-2.61067 c 0.25538,-0.0285 0.31214,-0.0852 0.39727,-0.1135 0.51078,-0.25545 0.87968,-0.53914 1.07831,-0.85134 l 7.4347,2.61067 c 0.17027,0.25536 0.17027,0.51079 -0.0851,0.73781 -0.28377,0.25537 -0.82293,0.36887 -1.44722,0.36887 z"
       style="fill:#003380;stroke:none" />
    <path
       id="path4331"
       d="m 644.67458,975.16816 c 0.45403,0.28378 0.76617,0.65273 0.65267,0.99326 -0.25539,0.65264 -0.76617,0.90801 -1.33371,0.99318 l -21.67981,-4.48359 c 0.19864,-0.1986 0.39728,-0.3972 0.53917,-0.59589 l 21.82168,3.09304 z"
       style="fill:#003380;stroke:none" />
    <path
       id="path4329"
       d="m 654.77669,981.21248 c -0.28377,0.1986 -0.87967,0.45396 -1.75935,0.45396 -0.39728,0 -0.82293,-0.057 -1.30534,-0.17026 0.0567,0.0285 0.11352,0.057 0.14189,0.057 l -7.66171,-2.35522 0,0 c 0.25538,-0.36887 0.3689,-0.82291 0.25538,-1.24862 l 0.0285,0 10.44263,2.27022 c 0.31214,0.34045 0.11351,0.79449 -0.14189,0.99317 z"
       style="fill:#003380;stroke:none" />
    <path
       id="path4327"
       d="m 608.91992,983.76638 c -0.0567,0.2837 -0.39727,0.42563 -0.87968,0.42563 -0.51077,0 -1.04994,-0.28378 -1.39046,-0.59589 l -1.75935,-6.66854 1.41883,0 2.61066,6.8388 z"
       style="fill:#003380;stroke:none" />
    <path
       id="path4323"
       d="m 622.99477,983.45419 c 0.3689,0.48238 0,0.96484 -0.62428,0.96484 -0.0284,0 -0.0284,0 -0.0567,0 -0.51077,0 -0.96481,-0.11352 -1.36208,-0.31219 l -6.9523,-7.54821 c 0.34053,-0.057 0.65267,-0.11352 0.99318,-0.19861 l 8.00224,7.09417 z"
       style="fill:#003380;stroke:none" />
    <path
       id="path4321"
       d="m 608.43752,986.91618 c -0.56754,0 -1.10669,-0.22702 -1.41884,-0.53921 l -0.45402,-1.61741 c 0.0284,-0.0285 0.0851,-0.057 0.11349,-0.057 0.42566,0.22702 0.90806,0.3972 1.36209,0.3972 0.36889,0 0.65266,-0.057 0.87968,-0.14184 l 0.51078,1.61748 c -0.19864,0.22702 -0.68104,0.34054 -0.99318,0.34054 z"
       style="fill:#003380;stroke:none" />
    <path
       id="path4315"
       d="m 617.20592,983.5677 c -0.14188,-0.11351 -0.25539,-0.1986 -0.36889,-0.28377 0.39726,0.36895 -0.0567,0.96484 -0.53916,0.96484 -0.56754,0 -1.22019,-0.22702 -1.78774,-0.56756 l -3.85924,-6.75363 c 0.45404,-0.0285 0.90807,-0.057 1.33371,-0.0852 l 5.22132,6.7253 z"
       style="fill:#003380;stroke:none" />
    <path
       id="path4313"
       d="m 611.5022,983.73797 c -0.0851,0.28378 -0.53915,0.42562 -0.85131,0.42562 -0.53915,0 -1.0783,-0.1986 -1.4472,-0.48238 l -2.58228,-6.7253 1.64585,0 3.23494,6.78206 z"
       style="fill:#003380;stroke:none" />
    <path
       id="path4311"
       d="m 619.98684,983.51095 c -0.0851,-0.0851 -0.19863,-0.14185 -0.28377,-0.22702 0.39728,0.36895 0.31215,1.02158 -0.59591,1.02158 -0.42565,0 -0.82293,-0.14192 -1.22019,-0.31219 l -5.56184,-7.20767 c 0.45403,-0.057 0.87968,-0.11352 1.30533,-0.17027 l 6.35638,6.89557 z"
       style="fill:#003380;stroke:none" />
    <path
       id="path4309"
       d="m 610.31038,976.92758 3.94437,6.92389 c -0.0285,0.28378 -0.39728,0.3973 -0.70942,0.3973 -0.51079,0 -1.16344,-0.17028 -1.67422,-0.5108 l -3.23496,-6.78206 0.48241,0 c 0.39727,0 0.79455,0 1.19182,-0.0285 z"
       style="fill:#003380;stroke:none" />
    <path
       id="path4307"
       d="m 638.60196,981.43942 c 0.34053,0.45404 -0.34052,0.87975 -1.27695,1.05001 -0.17025,0.0285 -0.34053,0.057 -0.51078,0.057 -0.0851,0 -0.14188,0 -0.19864,0 l -16.9409,-7.88874 c 0.19865,-0.11351 0.39728,-0.22702 0.56755,-0.34053 l 18.35972,7.12251 z"
       style="fill:#003380;stroke:none" />
    <path
       id="path4303"
       d="m 646.77445,973.86287 c -0.31214,0.68107 -1.02155,0.96484 -1.67422,1.04994 l -22.02032,-3.12147 c 0.14187,-0.1986 0.28376,-0.39728 0.39727,-0.56746 l 22.50273,1.41879 c 0.62429,0.17027 1.07831,0.56756 0.79454,1.2202 z"
       style="fill:#003380;stroke:none" />
    <path
       id="path4301"
       d="m 645.89479,972.27381 -22.24736,-1.39047 c 0.31215,-0.53921 0.45404,-0.93643 0.45404,-0.99317 l 0.0851,-0.25545 22.90001,0 c 0.28377,0.79458 0.42565,1.13511 0.36889,1.44722 -0.0851,0.65265 -0.82292,1.0216 -1.56071,1.19187 z"
       style="fill:#003380;stroke:none" />
    <path
       id="path4297"
       d="m 607.75648,988.87411 -0.3689,-1.30528 c 0.31214,0.1135 0.65266,0.17026 1.02155,0.17026 0.19865,0 0.82293,-0.0285 1.27695,-0.36887 0.0567,0.0285 0.14189,0.057 0.19865,0.0851 l 0.62428,1.98636 c -0.22701,0.19869 -0.5959,0.31219 -0.87966,0.31219 -0.39729,0.0285 -1.33372,-0.31219 -1.87287,-0.87975 z"
       style="fill:#003380;stroke:none" />
    <path
       id="path4295"
       d="m 613.03454,989.6971 c -0.90805,0 -1.92961,-0.42569 -2.32689,-0.96484 l -0.34051,-1.10668 c 0.34051,0.0851 0.62428,0.11351 0.85129,0.11351 0.53916,0 0.99319,-0.14193 1.33371,-0.36887 0.14189,0.057 0.28377,0.11351 0.39727,0.14185 l 0.87969,1.73099 c -0.0851,0.31211 -0.45403,0.45404 -0.79456,0.45404 z"
       style="fill:#003380;stroke:none" />
    <path
       id="path4293"
       d="m 660.82093,972.47241 c -0.0284,-0.0851 -0.0851,-0.17027 -0.1135,-0.25536 0.25539,-0.3122 0.4824,-0.73782 0.56753,-1.36213 l 0,-0.0285 0,-0.057 0,-0.057 c 0,-0.42562 -0.1135,-0.76615 -0.28377,-1.04993 l 6.72528,0 c 0,0 0.34053,0.39729 0.19865,1.50398 -0.0851,0.73781 -0.48242,1.27695 -1.07833,1.58906 l -6.01586,-0.28378 z"
       style="fill:#003380;stroke:none" />
    <path
       id="path4291"
       d="m 659.88451,974.82771 c 0.62428,-0.36895 0.87967,-0.87974 0.9648,-1.10669 0.0851,-0.22702 0.11351,-0.53921 0.0851,-0.85133 l 5.39159,0.22702 c 0.62428,0.25536 0.9648,0.87967 0.73779,1.44723 -0.14187,0.36887 -0.53916,0.70939 -0.99318,0.93641 l -6.101,-0.48237 c -0.0567,-0.0852 -0.0567,-0.14193 -0.0851,-0.17027 z"
       style="fill:#003380;stroke:none" />
    <path
       id="path4289"
       d="m 659.48722,972.01836 -11.23717,-0.56755 c 0.0284,-0.0851 0.0567,-0.17019 0.0567,-0.25536 0.0567,-0.45404 -0.0567,-0.85132 -0.25539,-1.4188 -0.0285,-0.057 -0.0285,-0.0852 -0.0567,-0.14193 l 7.26444,0 0,0 0,0 4.54027,0 c 0.31215,0.14193 0.65266,0.45404 0.65266,1.04993 -0.0567,0.34054 -0.14188,1.10669 -0.96481,1.33371 z"
       style="fill:#003380;stroke:none" />
    <path
       id="path4287"
       d="m 646.40556,985.52572 c -0.22701,0.1135 -0.51077,0.14184 -0.8513,0.14184 -0.39727,0 -0.8513,-0.0851 -1.33371,-0.1986 l -5.30644,-2.69583 c 0.28376,-0.19861 0.48241,-0.45396 0.56753,-0.73774 0.19864,0 0.34052,-0.0285 0.4824,-0.0285 l 6.52664,2.80926 c 0.19865,0.28378 0.17028,0.53914 -0.0851,0.7094 z"
       style="fill:#003380;stroke:none" />
    <path
       id="path4285"
       d="m 659.68586,972.3589 c 0.45404,0.31211 0.48241,0.79457 0.3689,1.07835 -0.11351,0.31211 -0.45402,0.82291 -1.44721,0.87966 l -10.92504,-0.93642 c 0,-0.22702 -0.0851,-0.45404 -0.19863,-0.65273 -0.0285,-0.057 -0.0567,-0.1135 -0.11351,-0.17018 0.31214,-0.19868 0.53916,-0.45404 0.70942,-0.79457 l 11.60607,0.59589 z"
       style="fill:#003380;stroke:none" />
    <path
       id="path4283"
       d="m 616.383,989.78219 c -0.82293,0 -1.64585,-0.39728 -2.24177,-0.85132 l -0.65266,-1.27695 c 0.2554,0.057 0.45402,0.057 0.59591,0.057 0.11351,0 0.82292,0 1.33371,-0.36886 0.22701,0.11351 0.51078,0.19868 0.82292,0.25536 l 0.96481,1.78775 c -0.14188,0.22702 -0.4824,0.39728 -0.82292,0.39728 z"
       style="fill:#003380;stroke:none" />
    <path
       id="path4281"
       d="m 629.15252,986.6324 -2.66741,-1.78775 c 0.11351,-0.057 0.19864,-0.14184 0.28377,-0.22702 0.56753,0.22702 1.24858,0.39729 1.98636,0.39729 0.0567,0 0.14188,0 0.19864,0 0.19864,0 0.3689,-0.0285 0.51079,-0.0851 l 2.66741,1.84442 c -0.17027,0.14193 -0.53916,0.22702 -0.85131,0.22702 -0.73779,-0.057 -1.4472,-0.11351 -2.12825,-0.36887 z"
       style="fill:#003380;stroke:none" />
    <path
       id="path4279"
       d="m 635.25351,987.05803 c -0.14189,0 -0.28377,0 -0.39727,0 -1.3337,0 -2.27013,-0.45404 -2.97955,-0.93642 0.11351,0.057 0.17025,0.14193 0.22701,0.1986 l -2.35526,-1.6174 c 0.1135,-0.0852 0.19862,-0.17027 0.28376,-0.25545 0.45403,0.14193 0.90806,0.22702 1.33371,0.22702 0.34052,0 0.68103,-0.057 0.9648,-0.17026 0,0 0,0 0.0285,0 0.0567,-0.0285 0.0851,-0.057 0.14188,-0.057 l 3.46195,2.18504 c -0.0567,0.25536 -0.34052,0.42562 -0.70942,0.42562 z"
       style="fill:#003380;stroke:none" />
    <path
       id="path4277"
       d="m 643.00035,986.29187 c -0.22701,0.057 -0.4824,0.0851 -0.79455,0.0851 -0.73779,0 -1.67422,-0.17019 -2.38364,-0.45397 l -4.0295,-2.29855 c 0.11352,-0.0851 0.17027,-0.19859 0.22703,-0.28378 0.25538,0.057 0.51077,0.0852 0.76616,0.0852 0.22702,0 0.45403,-0.0285 0.68104,-0.057 0.42566,-0.0852 0.82293,-0.19869 1.1067,-0.36895 l 4.82404,2.46881 c 0.31214,0.31212 0.19864,0.62432 -0.39728,0.82292 z"
       style="fill:#003380;stroke:none" />
    <path
       id="path4275"
       d="m 638.71547,986.80267 c -0.0851,0 -0.14188,0 -0.22701,0 -1.07832,0 -2.21339,-0.36895 -2.95118,-0.79458 0.0567,0.0285 0.11351,0.0852 0.17025,0.11352 l -2.89441,-1.84451 c 0.1135,-0.0851 0.19863,-0.19861 0.28376,-0.31211 0.42566,0.1135 0.87968,0.1986 1.27696,0.1986 0.17025,0 0.31214,0 0.45402,-0.0285 0.0285,0 0.0285,0 0.0567,0 0.28377,-0.0851 0.48241,-0.17027 0.65267,-0.28378 l 4.11462,2.3553 c 0.0567,0.31213 -0.28377,0.56756 -0.93644,0.59589 z"
       style="fill:#003380;stroke:none" />
    <path
       id="path4273"
       d="m 620.29898,986.83117 c -0.3689,0 -1.27695,-0.0852 -1.81611,-0.36894 l -1.27695,-1.64583 c 0.0567,-0.0285 0.11352,-0.0851 0.14189,-0.1135 0.4824,0.25543 1.10669,0.48237 1.75935,0.48237 0.42565,0 0.76618,-0.1135 1.04993,-0.28369 l 1.16346,1.44714 c 0.0284,0.31219 -0.51078,0.48245 -1.02157,0.48245 z"
       style="fill:#003380;stroke:none" />
    <path
       id="path4271"
       d="m 616.95053,986.83117 c -0.62429,0 -1.10669,-0.17026 -1.50397,-0.42569 l -0.87967,-1.58908 c 0.0285,-0.0285 0.0851,-0.057 0.1135,-0.0851 0.53916,0.22702 1.1067,0.36887 1.61748,0.36887 0.22701,0 0.42565,-0.057 0.62428,-0.14185 l 1.16346,1.53232 c -0.0852,0.25535 -0.59592,0.34052 -1.13508,0.34052 z"
       style="fill:#003380;stroke:none" />
    <path
       id="path4269"
       d="m 627.50667,986.94469 c -0.45402,0 -1.5891,-0.0852 -2.41202,-0.48246 l -1.7026,-1.44714 c 0.0851,-0.057 0.17026,-0.14193 0.25538,-0.19869 0.53916,0.22702 1.1067,0.36887 1.61748,0.36887 0.17026,0 0.34052,0 0.51079,-0.0285 l 0.0284,0 c 0.14188,-0.0285 0.25539,-0.057 0.36889,-0.11344 l 2.24177,1.5039 c 0.0284,0.25544 -0.45403,0.39729 -0.90806,0.39729 z"
       style="fill:#003380;stroke:none" />
    <path
       id="path6"
       d="m 623.76095,986.91619 c -0.39728,0 -1.19182,-0.11351 -1.84449,-0.42571 l -1.30532,-1.6174 c 0.56752,0.25536 1.13506,0.39721 1.73097,0.39721 0.0285,0 0.0567,0 0.0567,0 0.22702,0 0.45404,-0.057 0.65267,-0.11351 l 1.67422,1.41888 c -0.11349,0.22702 -0.59589,0.34053 -0.96479,0.34053 z"
       style="fill:#003380;stroke:none" />
    <path
       id="path4569"
       d="m 598.76698,948.09575 -0.0285,0.0284 -0.90806,0.53916 0.11351,0.19864 0.48241,-0.34052 c 0,0 0.22701,0.28377 0.34052,0.19864 0.0567,-0.0567 0.34053,-0.3689 0,-0.6243 z"
       style="fill:#00112b;stroke:none" />
    <path
       id="path4589-0"
       d="m 594.29148,971.31186 c -0.19865,-2.49715 -0.47717,-6.32388 -0.59067,-8.50893 0.4824,2.07153 1.10669,4.17139 1.4756,5.93073 0.87966,4.19973 4.11462,13.84788 4.11462,13.84788 0.22701,0.79449 0.4824,1.2202 0.93643,1.24853 0.56753,-0.0285 1.02156,-0.73781 1.56071,-1.78774 0.51079,-1.07828 1.07832,-2.52549 1.64586,-4.14298 0.34051,-0.93642 0.68104,-1.9296 0.99318,-2.95119 0.0285,0.25544 0.0567,0.5108 0.0851,0.76616 0.34053,3.689 4.02911,18.6612 4.2845,20.73265 -1.27695,1.84451 -6.89515,3.38423 -9.33554,3.38423 -2.38365,0 -6.51699,-1.46469 -7.82233,-3.22402 0.0284,-0.19869 2.09017,-12.12446 2.11857,-12.32306 0,-0.0285 0,-0.0852 0.0285,-0.11351 0.0567,-0.48238 0.14189,-0.93642 0.19864,-1.39047 0,-0.057 0,-0.0851 0.0284,-0.14184 0.0567,-0.45404 0.1135,-0.90809 0.14189,-1.33371 l 0,-0.11352 c 0.0567,-0.45404 0.0851,-0.87965 0.1135,-1.30536 l 0,-0.0285 c 0,-0.0851 0,-0.17027 0.0284,-0.25536 l 0,-0.057 c 0.17026,-2.07153 0.19863,-3.97279 0.14189,-5.76046 l 0,0 0,0 c -0.005,-0.93605 -0.23318,-1.72799 -0.14725,-2.47253 z"
       style="fill:#003380;stroke:none" />
    <g
       style="fill:#00002b"
       transform="matrix(1.9198572,0,0,1.9198572,-559.65416,-866.27972)"
       id="g4701">
      <g
         id="text4263"
         style="font-style:normal;font-weight:normal;font-size:21.00060272px;line-height:70.99999785%;font-family:sans-serif;letter-spacing:0px;word-spacing:0px;fill:#00002b;fill-opacity:1;stroke:none;stroke-width:1px;stroke-linecap:butt;stroke-linejoin:miter;stroke-opacity:1">
        <path
           id="path4845"
           style="font-style:normal;font-variant:normal;font-weight:normal;font-stretch:normal;font-size:5px;line-height:70.99999785%;font-family:'Akzidenz-Grotesk Pro';-inkscape-font-specification:'Akzidenz-Grotesk Pro';fill:#00002b"
           d="m 634.37948,966.98856 -0.36,0.025 c -0.3,0.02 -0.715,0.085 -0.955,0.265 -0.225,0.17 -0.255,0.4 -0.255,0.51 0,0.405 0.33,0.675 0.8,0.675 0.455,0 0.695,-0.265 0.805,-0.385 0.005,0.07 0.065,0.22 0.16,0.29 0.085,0.06 0.23,0.06 0.25,0.06 0.065,0 0.135,-0.005 0.255,-0.045 l 0,-0.335 c -0.045,0.01 -0.07,0.02 -0.12,0.02 -0.175,0 -0.18,-0.135 -0.18,-0.275 l 0,-0.83 c 0,-0.42 -0.02,-0.665 -0.355,-0.855 -0.195,-0.115 -0.445,-0.14 -0.59,-0.14 -0.835,0 -0.905,0.66 -0.905,0.775 l 0.415,0.025 0,-0.035 c 0,-0.295 0.18,-0.46 0.51,-0.46 0.52,0 0.525,0.415 0.525,0.635 l 0,0.08 z m 0.005,0.26 0,0.185 c 0,0.605 -0.475,0.695 -0.69,0.695 -0.315,0 -0.445,-0.175 -0.445,-0.35 0,-0.23 0.215,-0.33 0.29,-0.36 0.185,-0.08 0.66,-0.14 0.845,-0.17 z" />
        <path
           id="path4847"
           style="font-style:normal;font-variant:normal;font-weight:normal;font-stretch:normal;font-size:5px;line-height:70.99999785%;font-family:'Akzidenz-Grotesk Pro';-inkscape-font-specification:'Akzidenz-Grotesk Pro';fill:#00002b"
           d="m 635.86448,968.39856 0,-3.53 -0.38,0 0,3.53 0.38,0 z" />
        <path
           id="path4849"
           style="font-style:normal;font-variant:normal;font-weight:normal;font-stretch:normal;font-size:5px;line-height:70.99999785%;font-family:'Akzidenz-Grotesk Pro';-inkscape-font-specification:'Akzidenz-Grotesk Pro';fill:#00002b"
           d="m 636.8194,967.29356 1.79,0 0,-0.065 c 0,-0.915 -0.565,-1.26 -1.08,-1.26 -0.49,0 -1.14,0.335 -1.14,1.23 0,0.93 0.575,1.275 1.155,1.275 0.79,0 1.01,-0.63 1.065,-0.795 l -0.405,-0.055 c -0.05,0.215 -0.205,0.55 -0.62,0.55 -0.565,0 -0.765,-0.485 -0.765,-0.85 l 0,-0.03 z m 0.01,-0.29 c 0.035,-0.375 0.245,-0.725 0.67,-0.725 0.4,0 0.675,0.335 0.675,0.725 l -1.345,0 z" />
        <path
           id="path4851"
           style="font-style:normal;font-variant:normal;font-weight:normal;font-stretch:normal;font-size:5px;line-height:70.99999785%;font-family:'Akzidenz-Grotesk Pro';-inkscape-font-specification:'Akzidenz-Grotesk Pro';fill:#00002b"
           d="m 639.63682,966.04356 0,-0.45 c 0,-0.265 0.095,-0.38 0.3,-0.38 0.085,0 0.205,0.02 0.22,0.025 l 0,-0.315 c -0.135,-0.025 -0.24,-0.03 -0.29,-0.03 -0.09,0 -0.435,0.005 -0.56,0.325 -0.06,0.15 -0.06,0.3 -0.06,0.62 l 0,0.205 -0.39,0 0,0.33 0.39,0 0,2.025 0.39,0 0,-2.025 0.445,0 0,-0.33 -0.445,0 z" />
        <path
           id="path4853"
           style="font-style:normal;font-variant:normal;font-weight:normal;font-stretch:normal;font-size:5px;line-height:70.99999785%;font-family:'Akzidenz-Grotesk Pro';-inkscape-font-specification:'Akzidenz-Grotesk Pro';fill:#00002b"
           d="m 640.48424,964.86856 0,3.53 0.4,0 0,-0.305 c 0.11,0.145 0.35,0.38 0.805,0.38 0.73,0 1.09,-0.56 1.09,-1.255 0,-0.79 -0.475,-1.25 -1.085,-1.25 -0.315,0 -0.625,0.125 -0.81,0.4 l 0,-1.5 -0.4,0 z m 0.39,2.36 c 0,-0.695 0.43,-0.895 0.75,-0.895 0.39,0 0.73,0.29 0.73,0.85 0,0.755 -0.42,0.95 -0.73,0.95 -0.57,0 -0.75,-0.5 -0.75,-0.905 z" />
        <path
           id="path4855"
           style="font-style:normal;font-variant:normal;font-weight:normal;font-stretch:normal;font-size:5px;line-height:70.99999785%;font-family:'Akzidenz-Grotesk Pro';-inkscape-font-specification:'Akzidenz-Grotesk Pro';fill:#00002b"
           d="m 644.70174,966.98856 -0.36,0.025 c -0.3,0.02 -0.715,0.085 -0.955,0.265 -0.225,0.17 -0.255,0.4 -0.255,0.51 0,0.405 0.33,0.675 0.8,0.675 0.455,0 0.695,-0.265 0.805,-0.385 0.005,0.07 0.065,0.22 0.16,0.29 0.085,0.06 0.23,0.06 0.25,0.06 0.065,0 0.135,-0.005 0.255,-0.045 l 0,-0.335 c -0.045,0.01 -0.07,0.02 -0.12,0.02 -0.175,0 -0.18,-0.135 -0.18,-0.275 l 0,-0.83 c 0,-0.42 -0.02,-0.665 -0.355,-0.855 -0.195,-0.115 -0.445,-0.14 -0.59,-0.14 -0.835,0 -0.905,0.66 -0.905,0.775 l 0.415,0.025 0,-0.035 c 0,-0.295 0.18,-0.46 0.51,-0.46 0.52,0 0.525,0.415 0.525,0.635 l 0,0.08 z m 0.005,0.26 0,0.185 c 0,0.605 -0.475,0.695 -0.69,0.695 -0.315,0 -0.445,-0.175 -0.445,-0.35 0,-0.23 0.215,-0.33 0.29,-0.36 0.185,-0.08 0.66,-0.14 0.845,-0.17 z m 0.225,-1.555 0,-0.34 -1.425,0 0,0.34 1.425,0 z" />
        <path
           id="path4857"
           style="font-style:normal;font-variant:normal;font-weight:normal;font-stretch:normal;font-size:5px;line-height:70.99999785%;font-family:'Akzidenz-Grotesk Pro';-inkscape-font-specification:'Akzidenz-Grotesk Pro';fill:#00002b"
           d="m 647.09674,967.08856 0,-0.38 -1.4,0 0,0.38 1.4,0 z" />
        <path
           id="path4859"
           style="font-style:normal;font-variant:normal;font-weight:normal;font-stretch:normal;font-size:5px;line-height:70.99999785%;font-family:'Akzidenz-Grotesk Pro';-inkscape-font-specification:'Akzidenz-Grotesk Pro';fill:#00002b"
           d="m 649.02744,966.04356 -0.625,1.87 -0.59,-1.87 -0.425,0 0.8,2.37 -0.1,0.29 c -0.135,0.395 -0.225,0.49 -0.46,0.49 -0.125,0 -0.205,-0.02 -0.265,-0.04 l 0,0.36 c 0.16,0.045 0.275,0.05 0.355,0.05 0.415,0 0.545,-0.2 0.735,-0.735 l 0.99,-2.785 -0.415,0 z" />
        <path
           id="path4861"
           style="font-style:normal;font-variant:normal;font-weight:normal;font-stretch:normal;font-size:5px;line-height:70.99999785%;font-family:'Akzidenz-Grotesk Pro';-inkscape-font-specification:'Akzidenz-Grotesk Pro';fill:#00002b"
           d="m 650.12994,967.29356 1.79,0 0,-0.065 c 0,-0.915 -0.565,-1.26 -1.08,-1.26 -0.49,0 -1.14,0.335 -1.14,1.23 0,0.93 0.575,1.275 1.155,1.275 0.79,0 1.01,-0.63 1.065,-0.795 l -0.405,-0.055 c -0.05,0.215 -0.205,0.55 -0.62,0.55 -0.565,0 -0.765,-0.485 -0.765,-0.85 l 0,-0.03 z m 0.01,-0.29 c 0.035,-0.375 0.245,-0.725 0.67,-0.725 0.4,0 0.675,0.335 0.675,0.725 l -1.345,0 z" />
      </g>
      <g
         id="text4263-3"
         style="font-style:normal;font-weight:normal;font-size:21.00060272px;line-height:70.99999785%;font-family:sans-serif;letter-spacing:0px;word-spacing:0px;fill:#00002b;fill-opacity:1;stroke:none;stroke-width:1px;stroke-linecap:butt;stroke-linejoin:miter;stroke-opacity:1">
        <path
           id="path4832"
           style="font-style:normal;font-variant:normal;font-weight:normal;font-stretch:normal;font-size:9.69258595px;line-height:70.99999785%;font-family:'Akzidenz-Grotesk Pro';-inkscape-font-specification:'Akzidenz-Grotesk Pro';fill:#00002b"
           d="m 656.35652,968.46865 0,-3.53 -0.4,0 0,1.485 c -0.085,-0.135 -0.38,-0.385 -0.81,-0.385 -0.48,0 -1.08,0.33 -1.08,1.245 0,0.73 0.395,1.26 1.085,1.26 0.465,0 0.685,-0.235 0.805,-0.375 l 0,0.3 0.4,0 z m -1.86,-1.17 c 0,-0.445 0.205,-0.895 0.745,-0.895 0.445,0 0.725,0.37 0.725,0.855 0,0.72 -0.385,0.93 -0.735,0.93 -0.57,0 -0.735,-0.475 -0.735,-0.89 z" />
        <path
           id="path4834"
           style="font-style:normal;font-variant:normal;font-weight:normal;font-stretch:normal;font-size:5px;line-height:70.99999785%;font-family:'Akzidenz-Grotesk Pro';-inkscape-font-specification:'Akzidenz-Grotesk Pro';fill:#00002b"
           d="m 656.88402,967.29365 c 0,0.81 0.495,1.25 1.155,1.25 0.63,0 1.155,-0.43 1.155,-1.275 0,-0.845 -0.57,-1.23 -1.12,-1.23 -1.02,0 -1.19,0.875 -1.19,1.255 z m 0.435,0.02 c 0,-0.15 0.005,-0.955 0.75,-0.955 0.535,0 0.695,0.475 0.695,0.88 0,0.61 -0.25,0.985 -0.73,0.985 -0.63,0 -0.715,-0.63 -0.715,-0.91 z" />
        <path
           id="path4836"
           style="font-style:normal;font-variant:normal;font-weight:normal;font-stretch:normal;font-size:5px;line-height:70.99999785%;font-family:'Akzidenz-Grotesk Pro';-inkscape-font-specification:'Akzidenz-Grotesk Pro';fill:#00002b"
           d="m 661.52886,966.11365 -0.41,0 -0.62,1.805 -0.625,-1.805 -0.415,0 0.86,2.355 0.36,0 0.85,-2.355 z" />
        <path
           id="path4838"
           style="font-style:normal;font-variant:normal;font-weight:normal;font-stretch:normal;font-size:5px;line-height:70.99999785%;font-family:'Akzidenz-Grotesk Pro';-inkscape-font-specification:'Akzidenz-Grotesk Pro';fill:#00002b"
           d="m 663.71636,966.11365 -0.41,0 -0.62,1.805 -0.625,-1.805 -0.415,0 0.86,2.355 0.36,0 0.85,-2.355 z" />
        <path
           id="path4840"
           style="font-style:normal;font-variant:normal;font-weight:normal;font-stretch:normal;font-size:5px;line-height:70.99999785%;font-family:'Akzidenz-Grotesk Pro';-inkscape-font-specification:'Akzidenz-Grotesk Pro';fill:#00002b"
           d="m 663.97386,967.29365 c 0,0.81 0.495,1.25 1.155,1.25 0.63,0 1.155,-0.43 1.155,-1.275 0,-0.845 -0.57,-1.23 -1.12,-1.23 -1.02,0 -1.19,0.875 -1.19,1.255 z m 0.435,0.02 c 0,-0.15 0.005,-0.955 0.75,-0.955 0.535,0 0.695,0.475 0.695,0.88 0,0.61 -0.25,0.985 -0.73,0.985 -0.63,0 -0.715,-0.63 -0.715,-0.91 z" />
        <path
           id="path4842"
           style="font-style:normal;font-variant:normal;font-weight:normal;font-stretch:normal;font-size:5px;line-height:70.99999785%;font-family:'Akzidenz-Grotesk Pro';-inkscape-font-specification:'Akzidenz-Grotesk Pro';fill:#00002b"
           d="m 670.02371,968.46865 0,-1.555 c 0,-0.22 -0.01,-0.435 -0.16,-0.615 -0.06,-0.075 -0.25,-0.26 -0.545,-0.26 -0.405,0 -0.65,0.305 -0.79,0.435 -0.045,-0.075 -0.085,-0.15 -0.145,-0.215 -0.175,-0.2 -0.41,-0.22 -0.49,-0.22 -0.295,0 -0.515,0.165 -0.71,0.395 l 0,-0.32 -0.375,0 0,2.355 0.375,0 0,-1.4 c 0,-0.155 0.005,-0.225 0.035,-0.3 0.08,-0.21 0.355,-0.35 0.56,-0.35 0.135,0 0.435,0.05 0.435,0.515 l 0,1.535 0.39,0 0,-1.325 c 0,-0.17 0.005,-0.265 0.03,-0.34 0.07,-0.225 0.34,-0.39 0.565,-0.39 0.155,0 0.43,0.07 0.43,0.485 l 0,1.57 0.395,0 z" />
      </g>
    </g>
    <g
       id="flowRoot4222"
       style="font-style:normal;font-weight:normal;font-size:16.25px;line-height:125%;font-family:sans-serif;letter-spacing:0px;word-spacing:0px;fill:#000000;fill-opacity:1;stroke:none;stroke-width:1px;stroke-linecap:butt;stroke-linejoin:miter;stroke-opacity:1"
       transform="matrix(2.3420922,0,0,2.3420922,344.32468,823.75007)">
      <path
         id="path4821"
         style="font-style:italic;font-size:22.5px"
         d="m 132.80402,58.593239 c 0.945,-0.0225 1.89,-0.0225 2.5425,-0.0225 -0.7425,2.295 -1.485,4.5225 -2.6325,7.65 -1.6425,4.4775 -2.7,7.29 -4.3425,7.29 -0.7875,0 -1.0575,-0.6525 -1.0575,-1.2375 0,-0.1575 0.0225,-0.27 0.045,-0.3825 -0.1125,-0.135 -0.3825,-0.2475 -0.63,-0.2475 -0.405,0 -0.9675,0.36 -0.9675,1.0575 0,0.7425 0.6075,1.5075 1.845,1.5075 2.295,0 4.0725,-2.6325 5.6475,-5.805 1.485,-3.015 2.565,-6.03 3.7575,-9.8325 0.3825,0 1.53,0 2.4975,0.0225 l 0.0225,-0.5175 c -0.855,0.045 -1.755,0.045 -2.385,0.045 1.26,-4.23 1.9575,-6.5475 3.465,-6.5475 0.7875,0 1.2375,0.6075 1.2375,1.2825 0,0.09 0,0.18 -0.0225,0.2925 0.1575,0.1575 0.36,0.225 0.54,0.225 0.4725,0 0.9675,-0.4275 0.9675,-1.0575 0,-0.7875 -0.72,-1.485 -1.89,-1.485 -2.385,0 -4.32,2.835 -5.94,7.29 -0.63,0 -2.1825,-0.0225 -2.7225,-0.045 l 0.0225,0.5175 z" />
      <path
         id="path4823"
         style="font-style:normal;font-variant:normal;font-weight:normal;font-stretch:normal;font-family:'Aria Pro';-inkscape-font-specification:'Aria Pro'"
         d="m 143.53273,66.159489 c -0.0487,0.37375 -0.0487,0.53625 -0.0487,0.86125 0,0.63375 0.325,1.02375 0.8775,1.02375 0.4225,0 1.0075,-0.2275 1.69,-0.65 l -0.13,-0.195 c -0.26,0.14625 -0.4875,0.2275 -0.66625,0.2275 -0.47125,0 -0.53625,-0.53625 -0.53625,-1.34875 0,-0.79625 0.065,-1.83625 0.065,-2.45375 0,-0.82875 -0.11375,-1.57625 -0.5525,-2.145 -0.43875,-0.56875 -1.21875,-0.99125 -2.32375,-0.99125 -1.56,0 -2.8275,0.86125 -2.8275,2.12875 0,0.66625 0.3575,1.08875 0.845,1.08875 0.40625,0 0.715,-0.2925 0.715,-0.715 -0.2925,-0.3575 -0.4875,-0.6825 -0.4875,-1.105 0,-0.78 0.63375,-1.0725 1.28375,-1.0725 0.7475,0 1.44625,0.3575 1.80375,1.15375 0.195,0.43875 0.2925,1.0075 0.2925,1.885 0,0.11375 0,0.1625 -0.0162,0.3575 -0.34125,-0.04875 -0.78,-0.0975 -1.3,-0.0975 -0.6825,0 -1.56,0.08125 -2.22625,0.40625 -0.73125,0.3575 -1.235,1.04 -1.235,1.86875 0,1.04 0.8125,1.70625 2.06375,1.70625 0.73125,0 1.31625,-0.2275 1.82,-0.69875 0.37375,-0.34125 0.65,-0.76375 0.82875,-1.25125 l 0.065,0.01625 z m -0.0325,-1.69 c -0.065,0.95875 -0.21125,1.44625 -0.43875,1.9175 -0.40625,0.82875 -1.02375,1.25125 -1.69,1.25125 -0.73125,0 -1.235,-0.50375 -1.235,-1.3 0,-0.585 0.2925,-1.1375 0.79625,-1.495 0.43875,-0.30875 1.02375,-0.47125 1.67375,-0.47125 0.27625,0 0.6175,0.0325 0.89375,0.0975 z m -3.4775,-4.589332 c 0.6175,-0.0325 1.25125,-0.04875 1.885,-0.04875 0.69875,0 1.365,0.01625 2.06375,0.04875 l 0,-0.50375 c -0.8125,0.065 -1.57625,0.0975 -2.275,0.0975 -0.56875,0 -1.15375,-0.01625 -1.67375,-0.065 z" />
      <path
         id="path4825"
         style="font-style:normal;font-variant:normal;font-weight:normal;font-stretch:normal;font-family:'Aria Pro';-inkscape-font-specification:'Aria Pro'"
         d="m 146.4717,67.979489 c 0.4875,-0.01625 1.235,-0.04875 1.95,-0.04875 0.50375,0 1.18625,0.01625 1.83625,0.04875 l 0.0163,-0.24375 c -0.845,-0.065 -1.05625,-0.13 -1.18625,-0.715 -0.0975,-0.455 -0.13,-0.9425 -0.13,-1.31625 0,-0.975 0.21125,-2.25875 0.65,-3.20125 0.27625,-0.60125 0.69875,-1.18625 1.25125,-1.18625 0.47125,0 0.63375,0.4225 0.65,0.76375 0.13,0.11375 0.3575,0.17875 0.53625,0.17875 0.47125,0 0.6825,-0.4225 0.6825,-0.7475 0,-0.47125 -0.40625,-1.02375 -1.235,-1.02375 -1.44625,0 -2.12875,1.70625 -2.45375,2.77875 l -0.065,-0.01625 c 0.0325,-1.05625 0.11375,-2.08 0.195,-2.6975 l -0.0975,-0.065 c -0.73125,0.5525 -1.2675,0.76375 -2.48625,0.92625 l 0.0325,0.24375 c 0.27625,-0.0325 0.43875,-0.04875 0.6175,-0.04875 0.3575,0 0.43875,0.065 0.4875,0.43875 0.0325,0.30875 0.065,1.17 0.065,2.32375 0,1.64125 -0.065,2.61625 -0.1625,2.90875 -0.11375,0.34125 -0.43875,0.43875 -1.17,0.455 l 0.0162,0.24375 z" />
      <path
         id="path4827"
         style="font-style:normal;font-variant:normal;font-weight:normal;font-stretch:normal;font-family:'Aria Pro';-inkscape-font-specification:'Aria Pro'"
         d="m 153.67146,65.395739 c 0.0163,0.325 0.0325,0.6175 0.0325,0.92625 0,0.43875 -0.0325,0.8775 -0.065,1.31625 0.7475,0.26 1.60875,0.455 2.47,0.455 1.8525,0 2.86,-0.89375 2.86,-2.1125 0,-1.18625 -0.975,-1.73875 -2.38875,-2.4375 -1.17,-0.585 -1.9175,-0.8775 -1.9175,-1.67375 0,-0.715 0.56875,-1.105 1.44625,-1.105 1.28375,0 2.1125,0.86125 2.3075,2.2425 l 0.17875,-0.01625 c -0.0325,-0.39 -0.0488,-0.76375 -0.0488,-1.105 0,-0.325 0.0163,-0.65 0.0325,-0.95875 -0.6825,-0.24375 -1.47875,-0.43875 -2.275,-0.43875 -1.70625,0 -2.5675,0.89375 -2.5675,1.96625 0,1.17 1.05625,1.77125 2.145,2.32375 1.25125,0.63375 2.09625,0.9425 2.09625,1.82 0,0.78 -0.69875,1.21875 -1.6575,1.21875 -1.38125,0 -2.275,-0.92625 -2.4375,-2.4375 l -0.21125,0.01625 z" />
      <path
         id="path4829"
         style="font-style:normal;font-variant:normal;font-weight:normal;font-stretch:normal;font-family:'Aria Pro';-inkscape-font-specification:'Aria Pro'"
         d="m 162.00492,59.155739 c 0.455,0 0.845,-0.37375 0.845,-0.82875 0,-0.455 -0.39,-0.845 -0.845,-0.845 -0.455,0 -0.82875,0.39 -0.82875,0.845 0,0.455 0.37375,0.82875 0.82875,0.82875 z m -1.9175,8.82375 c 0.4875,-0.01625 1.235,-0.04875 1.95,-0.04875 0.50375,0 1.18625,0.01625 1.83625,0.04875 l 0.0162,-0.24375 c -0.845,-0.04875 -1.0725,-0.2275 -1.17,-0.715 -0.065,-0.34125 -0.11375,-1.0725 -0.11375,-2.47 0,-1.7875 0.0813,-3.10375 0.17875,-3.9975 l -0.0975,-0.065 c -0.73125,0.5525 -1.25125,0.76375 -2.48625,0.92625 l 0.0325,0.24375 c 0.27625,-0.0325 0.4225,-0.04875 0.60125,-0.04875 0.3575,0 0.47125,0.065 0.50375,0.43875 0.0325,0.325 0.065,1.15375 0.065,2.3075 0,1.64125 -0.065,2.6325 -0.1625,2.925 -0.11375,0.34125 -0.43875,0.43875 -1.17,0.455 l 0.0163,0.24375 z" />
    </g>
  </g>
  <g
     style="font-style:normal;font-weight:normal;font-size:5px;line-height:100%;font-family:sans-serif;letter-spacing:0px;word-spacing:0px;fill:#ffd5d5;fill-opacity:1;stroke:none;stroke-width:1px;stroke-linecap:butt;stroke-linejoin:miter;stroke-opacity:1"
     id="text4237">
    <path
       d="m 18.751923,35.887858 0,-4.2375 0.334375,0 q 0.11875,0 0.146875,0.115625 l 0.04687,0.375 q 0.203125,-0.246875 0.465625,-0.396875 0.2625,-0.15 0.6,-0.15 0.275,0 0.496875,0.10625 0.221875,0.103125 0.378125,0.309375 0.15625,0.203125 0.240625,0.50625 0.08438,0.303125 0.08438,0.696875 0,0.35 -0.09375,0.653125 -0.09375,0.3 -0.271875,0.521875 -0.175,0.21875 -0.43125,0.346875 -0.253125,0.125 -0.571875,0.125 -0.290625,0 -0.5,-0.09687 -0.20625,-0.09688 -0.365625,-0.275 l 0,1.4 -0.559375,0 z m 1.4125,-3.84375 q -0.271875,0 -0.478125,0.125 -0.203125,0.125 -0.375,0.353125 l 0,1.53125 q 0.15,0.20625 0.33125,0.290625 0.184375,0.08438 0.409375,0.08438 0.44375,0 0.68125,-0.315625 0.2375,-0.315625 0.2375,-0.9 0,-0.309375 -0.05625,-0.53125 -0.05312,-0.221875 -0.15625,-0.3625 -0.103125,-0.14375 -0.253125,-0.209375 -0.15,-0.06562 -0.340625,-0.06562 z"
       style="font-style:normal;font-variant:normal;font-weight:normal;font-stretch:normal;font-size:6.25px;line-height:100%;font-family:Lato;-inkscape-font-specification:Lato;text-align:end;text-anchor:end;fill:#ffd5d5;fill-opacity:1"
       id="path4270" />
    <path
       d="m 23.552216,31.600358 q 0.284375,0 0.525,0.09688 0.24375,0.09375 0.41875,0.275 0.178125,0.178125 0.278125,0.44375 0.1,0.2625 0.1,0.6 0,0.13125 -0.02812,0.175 -0.02812,0.04375 -0.10625,0.04375 l -2.115625,0 q 0.0063,0.3 0.08125,0.521875 0.075,0.221875 0.20625,0.371875 0.13125,0.146875 0.3125,0.221875 0.18125,0.07187 0.40625,0.07187 0.209375,0 0.359375,-0.04687 0.153125,-0.05 0.2625,-0.10625 0.109375,-0.05625 0.18125,-0.103125 0.075,-0.05 0.128125,-0.05 0.06875,0 0.10625,0.05313 l 0.15625,0.203125 q -0.103125,0.125 -0.246875,0.21875 -0.14375,0.09062 -0.309375,0.15 -0.1625,0.05938 -0.3375,0.0875 -0.175,0.03125 -0.346875,0.03125 -0.328125,0 -0.60625,-0.109375 -0.275,-0.1125 -0.478125,-0.325 -0.2,-0.215625 -0.3125,-0.53125 -0.1125,-0.315625 -0.1125,-0.725 0,-0.33125 0.1,-0.61875 0.103125,-0.2875 0.29375,-0.496875 0.190625,-0.2125 0.465625,-0.33125 0.275,-0.121875 0.61875,-0.121875 z m 0.0125,0.409375 q -0.403125,0 -0.634375,0.234375 -0.23125,0.23125 -0.2875,0.64375 l 1.73125,0 q 0,-0.19375 -0.05625,-0.353125 -0.05313,-0.1625 -0.159375,-0.278125 -0.103125,-0.11875 -0.253125,-0.18125 -0.15,-0.06563 -0.340625,-0.06563 z"
       style="font-style:normal;font-variant:normal;font-weight:normal;font-stretch:normal;font-size:6.25px;line-height:100%;font-family:Lato;-inkscape-font-specification:Lato;text-align:end;text-anchor:end;fill:#ffd5d5;fill-opacity:1"
       id="path4272" />
    <path
       d="m 25.55124,34.815983 0,-3.165625 0.334375,0 q 0.11875,0 0.146875,0.115625 l 0.04375,0.34375 q 0.20625,-0.228125 0.4625,-0.36875 0.25625,-0.140625 0.590625,-0.140625 0.259375,0 0.45625,0.0875 0.2,0.08438 0.33125,0.24375 0.134375,0.15625 0.203125,0.378125 0.06875,0.221875 0.06875,0.490625 l 0,2.015625 -0.559375,0 0,-2.015625 q 0,-0.359375 -0.165625,-0.55625 -0.1625,-0.2 -0.496875,-0.2 -0.25,0 -0.465625,0.11875 -0.2125,0.11875 -0.390625,0.321875 l 0,2.33125 -0.559375,0 z"
       style="font-style:normal;font-variant:normal;font-weight:normal;font-stretch:normal;font-size:6.25px;line-height:100%;font-family:Lato;-inkscape-font-specification:Lato;text-align:end;text-anchor:end;fill:#ffd5d5;fill-opacity:1"
       id="path4274" />
    <path
       d="m 31.329951,34.815983 q -0.11875,0 -0.15,-0.115625 l -0.05,-0.384375 q -0.203125,0.246875 -0.465625,0.396875 -0.259375,0.146875 -0.596875,0.146875 -0.271875,0 -0.49375,-0.103125 -0.221875,-0.10625 -0.378125,-0.309375 -0.15625,-0.203125 -0.240625,-0.50625 -0.08438,-0.303125 -0.08438,-0.696875 0,-0.35 0.09375,-0.65 0.09375,-0.303125 0.26875,-0.525 0.175,-0.221875 0.428125,-0.346875 0.25625,-0.128125 0.575,-0.128125 0.290625,0 0.496875,0.1 0.209375,0.09688 0.371875,0.275 l 0,-1.75625 0.55625,0 0,4.603125 -0.33125,0 z m -1.08125,-0.40625 q 0.275,0 0.478125,-0.125 0.20625,-0.125 0.378125,-0.353125 l 0,-1.528125 q -0.15625,-0.20625 -0.3375,-0.290625 -0.18125,-0.08438 -0.40625,-0.08438 -0.440625,0 -0.678125,0.315625 -0.2375,0.315625 -0.2375,0.9 0,0.309375 0.05313,0.53125 0.05312,0.21875 0.15625,0.3625 0.103125,0.140625 0.253125,0.20625 0.15,0.06563 0.340625,0.06563 z"
       style="font-style:normal;font-variant:normal;font-weight:normal;font-stretch:normal;font-size:6.25px;line-height:100%;font-family:Lato;-inkscape-font-specification:Lato;text-align:end;text-anchor:end;fill:#ffd5d5;fill-opacity:1"
       id="path4276" />
    <path
       d="m 32.308369,34.815983 0,0 z m 2.25,0 q -0.08125,0 -0.125,-0.025 -0.04375,-0.02812 -0.06875,-0.10625 l -0.0625,-0.296875 q -0.125,0.1125 -0.246875,0.203125 -0.11875,0.0875 -0.25,0.15 -0.128125,0.05938 -0.278125,0.09063 -0.146875,0.03437 -0.328125,0.03437 -0.184375,0 -0.346875,-0.05 -0.1625,-0.05313 -0.284375,-0.15625 -0.11875,-0.103125 -0.190625,-0.259375 -0.06875,-0.159375 -0.06875,-0.375 0,-0.1875 0.103125,-0.359375 0.103125,-0.175 0.334375,-0.309375 0.23125,-0.134375 0.603125,-0.21875 0.371875,-0.0875 0.9125,-0.1 l 0,-0.246875 q 0,-0.36875 -0.159375,-0.55625 -0.159375,-0.190625 -0.465625,-0.190625 -0.20625,0 -0.346875,0.05313 -0.1375,0.05 -0.240625,0.115625 -0.1,0.0625 -0.175,0.115625 -0.07188,0.05 -0.14375,0.05 -0.05625,0 -0.09687,-0.02813 -0.04062,-0.03125 -0.06875,-0.075 l -0.1,-0.178125 q 0.2625,-0.253125 0.565625,-0.378125 0.303125,-0.125 0.671875,-0.125 0.265625,0 0.471875,0.0875 0.20625,0.0875 0.346875,0.24375 0.140625,0.15625 0.2125,0.378125 0.07187,0.221875 0.07187,0.4875 l 0,2.025 -0.246875,0 z m -1.19375,-0.340625 q 0.146875,0 0.26875,-0.02813 0.121875,-0.03125 0.228125,-0.08437 0.109375,-0.05625 0.20625,-0.134375 0.1,-0.08125 0.19375,-0.18125 l 0,-0.65625 q -0.384375,0.0125 -0.65625,0.0625 -0.26875,0.04687 -0.440625,0.125 -0.16875,0.07813 -0.246875,0.184375 -0.075,0.10625 -0.075,0.2375 0,0.125 0.04062,0.215625 0.04062,0.09062 0.109375,0.15 0.07187,0.05625 0.165625,0.08438 0.09687,0.025 0.20625,0.025 z m -0.628125,-3.871875 1.79375,0 0,0.365625 -1.79375,0 0,-0.365625 z"
       style="font-style:normal;font-variant:normal;font-weight:normal;font-stretch:normal;font-size:6.25px;line-height:100%;font-family:Lato;-inkscape-font-specification:Lato;text-align:end;text-anchor:end;fill:#ffd5d5;fill-opacity:1"
       id="path4278" />
    <path
       d="m 35.646455,34.815983 0,-3.165625 0.31875,0 q 0.09063,0 0.125,0.03438 0.03438,0.03437 0.04687,0.11875 l 0.03438,0.48125 q 0.15,-0.325 0.36875,-0.50625 0.221875,-0.184375 0.5375,-0.184375 0.1,0 0.190625,0.02188 0.09375,0.02188 0.165625,0.06875 l -0.04062,0.415625 q -0.01875,0.07813 -0.09375,0.07813 -0.04375,0 -0.128125,-0.01875 -0.08438,-0.01875 -0.190625,-0.01875 -0.15,0 -0.26875,0.04687 -0.11875,0.04375 -0.2125,0.13125 -0.09063,0.08438 -0.1625,0.209375 -0.07187,0.125 -0.13125,0.2875 l 0,2 -0.559375,0 z"
       style="font-style:normal;font-variant:normal;font-weight:normal;font-stretch:normal;font-size:6.25px;line-height:100%;font-family:Lato;-inkscape-font-specification:Lato;text-align:end;text-anchor:end;fill:#ffd5d5;fill-opacity:1"
       id="path4280" />
    <path
       d="m 37.744892,32.706608 1.54375,0 0,0.471875 -1.54375,0 0,-0.471875 z"
       style="font-style:normal;font-variant:normal;font-weight:normal;font-stretch:normal;font-size:6.25px;line-height:100%;font-family:Lato;-inkscape-font-specification:Lato;text-align:end;text-anchor:end;fill:#ffd5d5;fill-opacity:1"
       id="path4282" />
    <path
       d="m 41.411103,31.600358 q 0.284375,0 0.525,0.09688 0.24375,0.09375 0.41875,0.275 0.178125,0.178125 0.278125,0.44375 0.1,0.2625 0.1,0.6 0,0.13125 -0.02813,0.175 -0.02813,0.04375 -0.10625,0.04375 l -2.115625,0 q 0.0062,0.3 0.08125,0.521875 0.075,0.221875 0.20625,0.371875 0.13125,0.146875 0.3125,0.221875 0.18125,0.07187 0.40625,0.07187 0.209375,0 0.359375,-0.04687 0.153125,-0.05 0.2625,-0.10625 0.109375,-0.05625 0.18125,-0.103125 0.075,-0.05 0.128125,-0.05 0.06875,0 0.10625,0.05313 l 0.15625,0.203125 q -0.103125,0.125 -0.246875,0.21875 -0.14375,0.09062 -0.309375,0.15 -0.1625,0.05938 -0.3375,0.0875 -0.175,0.03125 -0.346875,0.03125 -0.328125,0 -0.60625,-0.109375 -0.275,-0.1125 -0.478125,-0.325 -0.2,-0.215625 -0.3125,-0.53125 -0.1125,-0.315625 -0.1125,-0.725 0,-0.33125 0.1,-0.61875 0.103125,-0.2875 0.29375,-0.496875 0.190625,-0.2125 0.465625,-0.33125 0.275,-0.121875 0.61875,-0.121875 z m 0.0125,0.409375 q -0.403125,0 -0.634375,0.234375 -0.23125,0.23125 -0.2875,0.64375 l 1.73125,0 q 0,-0.19375 -0.05625,-0.353125 -0.05312,-0.1625 -0.159375,-0.278125 -0.103125,-0.11875 -0.253125,-0.18125 -0.15,-0.06563 -0.340625,-0.06563 z"
       style="font-style:normal;font-variant:normal;font-weight:normal;font-stretch:normal;font-size:6.25px;line-height:100%;font-family:Lato;-inkscape-font-specification:Lato;text-align:end;text-anchor:end;fill:#ffd5d5;fill-opacity:1"
       id="path4284" />
    <path
       d="m 45.009248,34.815983 0,-3.165625 0.334375,0 q 0.11875,0 0.146875,0.115625 l 0.04375,0.34375 q 0.20625,-0.228125 0.4625,-0.36875 0.25625,-0.140625 0.590625,-0.140625 0.259375,0 0.45625,0.0875 0.2,0.08438 0.33125,0.24375 0.134375,0.15625 0.203125,0.378125 0.06875,0.221875 0.06875,0.490625 l 0,2.015625 -0.559375,0 0,-2.015625 q 0,-0.359375 -0.165625,-0.55625 -0.1625,-0.2 -0.496875,-0.2 -0.25,0 -0.465625,0.11875 -0.2125,0.11875 -0.390625,0.321875 l 0,2.33125 -0.559375,0 z"
       style="font-style:normal;font-variant:normal;font-weight:normal;font-stretch:normal;font-size:6.25px;line-height:100%;font-family:Lato;-inkscape-font-specification:Lato;text-align:end;text-anchor:end;fill:#ffd5d5;fill-opacity:1"
       id="path4286" />
    <path
       d="m 49.087959,31.650358 0,3.165625 -0.55625,0 0,-3.165625 0.55625,0 z m 0.11875,-0.99375 q 0,0.08125 -0.03437,0.153125 -0.03125,0.06875 -0.0875,0.125 -0.05313,0.05312 -0.128125,0.08437 -0.07187,0.03125 -0.153125,0.03125 -0.08125,0 -0.153125,-0.03125 -0.06875,-0.03125 -0.121875,-0.08437 -0.05313,-0.05625 -0.08438,-0.125 -0.03125,-0.07188 -0.03125,-0.153125 0,-0.08125 0.03125,-0.153125 0.03125,-0.075 0.08438,-0.128125 0.05312,-0.05625 0.121875,-0.0875 0.07187,-0.03125 0.153125,-0.03125 0.08125,0 0.153125,0.03125 0.075,0.03125 0.128125,0.0875 0.05625,0.05313 0.0875,0.128125 0.03437,0.07188 0.03437,0.153125 z"
       style="font-style:normal;font-variant:normal;font-weight:normal;font-stretch:normal;font-size:6.25px;line-height:100%;font-family:Lato;-inkscape-font-specification:Lato;text-align:end;text-anchor:end;fill:#ffd5d5;fill-opacity:1"
       id="path4288" />
    <path
       d="m 50.561298,30.212858 0,2.709375 0.14375,0 q 0.0625,0 0.103125,-0.01563 0.04375,-0.01875 0.09063,-0.07187 l 1,-1.071875 q 0.04375,-0.05313 0.09063,-0.08125 0.05,-0.03125 0.13125,-0.03125 l 0.503125,0 -1.165625,1.240625 q -0.08438,0.10625 -0.18125,0.165625 0.05625,0.0375 0.1,0.0875 0.04687,0.04687 0.0875,0.109375 l 1.2375,1.5625 -0.496875,0 q -0.07187,0 -0.125,-0.02188 -0.05,-0.025 -0.0875,-0.0875 l -1.040625,-1.296875 q -0.04687,-0.06563 -0.09375,-0.08438 -0.04375,-0.02188 -0.1375,-0.02188 l -0.159375,0 0,1.5125 -0.559375,0 0,-4.603125 0.559375,0 z"
       style="font-style:normal;font-variant:normal;font-weight:normal;font-stretch:normal;font-size:6.25px;line-height:100%;font-family:Lato;-inkscape-font-specification:Lato;text-align:end;text-anchor:end;fill:#ffd5d5;fill-opacity:1"
       id="path4290" />
    <path
       d="m 22.711494,37.847233 q 0.20625,0 0.384375,0.04687 0.178125,0.04375 0.325,0.13125 l 0.859375,0 0,0.20625 q 0,0.103125 -0.13125,0.13125 l -0.359375,0.05 q 0.10625,0.203125 0.10625,0.453125 0,0.23125 -0.09063,0.421875 -0.0875,0.1875 -0.24375,0.321875 -0.15625,0.134375 -0.375,0.20625 -0.21875,0.07187 -0.475,0.07187 -0.225,0 -0.421875,-0.05313 -0.1,0.0625 -0.153125,0.134375 -0.05,0.07187 -0.05,0.140625 0,0.1125 0.09063,0.171875 0.09375,0.05625 0.24375,0.08125 0.15,0.025 0.340625,0.03125 0.19375,0.0062 0.39375,0.02187 0.203125,0.0125 0.39375,0.04687 0.19375,0.03438 0.34375,0.1125 0.15,0.07813 0.240625,0.215625 0.09375,0.1375 0.09375,0.35625 0,0.203125 -0.103125,0.39375 -0.1,0.190625 -0.290625,0.3375 -0.190625,0.15 -0.46875,0.2375 -0.275,0.09063 -0.621875,0.09063 -0.346875,0 -0.60625,-0.06875 -0.259375,-0.06875 -0.43125,-0.184375 -0.171875,-0.115625 -0.259375,-0.26875 -0.08437,-0.15 -0.08437,-0.315625 0,-0.234375 0.146875,-0.396875 0.146875,-0.1625 0.4,-0.259375 -0.140625,-0.0625 -0.221875,-0.165625 -0.08125,-0.10625 -0.08125,-0.284375 0,-0.06875 0.025,-0.140625 0.025,-0.075 0.075,-0.146875 0.05312,-0.07187 0.128125,-0.1375 0.075,-0.06562 0.175,-0.115625 -0.234375,-0.13125 -0.365625,-0.35 -0.13125,-0.21875 -0.13125,-0.50625 0,-0.23125 0.0875,-0.41875 0.09062,-0.190625 0.25,-0.321875 0.159375,-0.134375 0.378125,-0.20625 0.221875,-0.07187 0.484375,-0.07187 z m 1.003125,3.390625 q 0,-0.115625 -0.06563,-0.1875 -0.06562,-0.07188 -0.178125,-0.1125 -0.109375,-0.04062 -0.25625,-0.05625 -0.146875,-0.01875 -0.3125,-0.02813 -0.1625,-0.0094 -0.33125,-0.01875 -0.16875,-0.0094 -0.325,-0.03125 -0.175,0.08125 -0.2875,0.203125 -0.109375,0.121875 -0.109375,0.290625 0,0.10625 0.05312,0.196875 0.05625,0.09375 0.16875,0.159375 0.1125,0.06875 0.28125,0.10625 0.171875,0.04063 0.403125,0.04063 0.225,0 0.403125,-0.04063 0.178125,-0.04062 0.3,-0.115625 0.125,-0.075 0.190625,-0.178125 0.06563,-0.103125 0.06563,-0.228125 z m -1.003125,-1.71875 q 0.16875,0 0.296875,-0.04687 0.128125,-0.04687 0.215625,-0.13125 0.0875,-0.08438 0.13125,-0.2 0.04375,-0.11875 0.04375,-0.259375 0,-0.290625 -0.178125,-0.4625 -0.175,-0.171875 -0.509375,-0.171875 -0.3375,0 -0.515625,0.171875 -0.175,0.171875 -0.175,0.4625 0,0.140625 0.04375,0.259375 0.04687,0.115625 0.134375,0.2 0.0875,0.08438 0.215625,0.13125 0.128125,0.04687 0.296875,0.04687 z"
       style="font-style:normal;font-variant:normal;font-weight:normal;font-stretch:normal;font-size:6.25px;line-height:100%;font-family:Lato;-inkscape-font-specification:Lato;text-align:end;text-anchor:end;fill:#dbe2e3;fill-opacity:1"
       id="path4292" />
    <path
       d="m 26.140986,37.850358 q 0.346875,0 0.625,0.115625 0.278125,0.115625 0.475,0.328125 0.196875,0.2125 0.3,0.515625 0.10625,0.3 0.10625,0.671875 0,0.375 -0.10625,0.675 -0.103125,0.3 -0.3,0.5125 -0.196875,0.2125 -0.475,0.328125 -0.278125,0.1125 -0.625,0.1125 -0.35,0 -0.63125,-0.1125 -0.278125,-0.115625 -0.475,-0.328125 -0.196875,-0.2125 -0.303125,-0.5125 -0.103125,-0.3 -0.103125,-0.675 0,-0.371875 0.103125,-0.671875 0.10625,-0.303125 0.303125,-0.515625 0.196875,-0.2125 0.475,-0.328125 0.28125,-0.115625 0.63125,-0.115625 z m 0,2.825 q 0.46875,0 0.7,-0.3125 0.23125,-0.315625 0.23125,-0.878125 0,-0.565625 -0.23125,-0.88125 -0.23125,-0.315625 -0.7,-0.315625 -0.2375,0 -0.415625,0.08125 -0.175,0.08125 -0.29375,0.234375 -0.115625,0.153125 -0.175,0.378125 -0.05625,0.221875 -0.05625,0.503125 0,0.5625 0.23125,0.878125 0.234375,0.3125 0.709375,0.3125 z"
       style="font-style:normal;font-variant:normal;font-weight:normal;font-stretch:normal;font-size:6.25px;line-height:100%;font-family:Lato;-inkscape-font-specification:Lato;text-align:end;text-anchor:end;fill:#dbe2e3;fill-opacity:1"
       id="path4294" />
    <path
       d="m 31.060908,38.365983 0,1.9 q 0,0.2 0.09687,0.296875 0.09688,0.09688 0.246875,0.09688 0.09062,0 0.153125,-0.02188 0.06563,-0.025 0.1125,-0.05313 0.04687,-0.02813 0.07813,-0.05 0.03125,-0.025 0.05625,-0.025 0.02812,0 0.04375,0.0125 0.01875,0.0125 0.0375,0.04062 l 0.1625,0.265625 q -0.14375,0.134375 -0.346875,0.2125 -0.203125,0.075 -0.421875,0.075 -0.371875,0 -0.575,-0.209375 -0.2,-0.209375 -0.2,-0.603125 l 0,-1.9375 -1.465625,0 0,2.7 -0.559375,0 0,-2.690625 -0.35,-0.04062 q -0.06563,-0.01563 -0.109375,-0.04687 -0.04062,-0.03437 -0.04062,-0.09687 l 0,-0.228125 0.5,0 0,-0.30625 q 0,-0.271875 0.075,-0.48125 0.07813,-0.2125 0.21875,-0.35625 0.14375,-0.146875 0.34375,-0.221875 0.2,-0.075 0.45,-0.075 0.2125,0 0.390625,0.0625 l -0.0125,0.278125 q -0.0063,0.075 -0.08438,0.08125 -0.075,0.0063 -0.203125,0.0063 -0.14375,0 -0.2625,0.0375 -0.115625,0.0375 -0.2,0.121875 -0.08438,0.08438 -0.13125,0.221875 -0.04375,0.1375 -0.04375,0.340625 l 0,0.290625 1.503125,0 0.125,-0.984375 q 0.0125,-0.04687 0.04375,-0.075 0.03438,-0.03125 0.0875,-0.03125 l 0.28125,0 0,1.090625 0.9125,0 0,0.403125 -0.9125,0 z"
       style="font-style:normal;font-variant:normal;font-weight:normal;font-stretch:normal;font-size:6.25px;line-height:100%;font-family:Lato;-inkscape-font-specification:Lato;text-align:end;text-anchor:end;fill:#dbe2e3;fill-opacity:1"
       id="path4296" />
    <path
       d="m 32.308369,41.065983 0,0 z m 2.25,0 q -0.08125,0 -0.125,-0.025 -0.04375,-0.02812 -0.06875,-0.10625 l -0.0625,-0.296875 q -0.125,0.1125 -0.246875,0.203125 -0.11875,0.0875 -0.25,0.15 -0.128125,0.05938 -0.278125,0.09063 -0.146875,0.03437 -0.328125,0.03437 -0.184375,0 -0.346875,-0.05 -0.1625,-0.05313 -0.284375,-0.15625 -0.11875,-0.103125 -0.190625,-0.259375 -0.06875,-0.159375 -0.06875,-0.375 0,-0.1875 0.103125,-0.359375 0.103125,-0.175 0.334375,-0.309375 0.23125,-0.134375 0.603125,-0.21875 0.371875,-0.0875 0.9125,-0.1 l 0,-0.246875 q 0,-0.36875 -0.159375,-0.55625 -0.159375,-0.190625 -0.465625,-0.190625 -0.20625,0 -0.346875,0.05313 -0.1375,0.05 -0.240625,0.115625 -0.1,0.0625 -0.175,0.115625 -0.07188,0.05 -0.14375,0.05 -0.05625,0 -0.09687,-0.02813 -0.04062,-0.03125 -0.06875,-0.075 l -0.1,-0.178125 q 0.2625,-0.253125 0.565625,-0.378125 0.303125,-0.125 0.671875,-0.125 0.265625,0 0.471875,0.0875 0.20625,0.0875 0.346875,0.24375 0.140625,0.15625 0.2125,0.378125 0.07187,0.221875 0.07187,0.4875 l 0,2.025 -0.246875,0 z m -1.19375,-0.340625 q 0.146875,0 0.26875,-0.02813 0.121875,-0.03125 0.228125,-0.08437 0.109375,-0.05625 0.20625,-0.134375 0.1,-0.08125 0.19375,-0.18125 l 0,-0.65625 q -0.384375,0.0125 -0.65625,0.0625 -0.26875,0.04687 -0.440625,0.125 -0.16875,0.07813 -0.246875,0.184375 -0.075,0.10625 -0.075,0.2375 0,0.125 0.04062,0.215625 0.04062,0.09062 0.109375,0.15 0.07187,0.05625 0.165625,0.08438 0.09687,0.025 0.20625,0.025 z m -0.628125,-3.871875 1.79375,0 0,0.365625 -1.79375,0 0,-0.365625 z"
       style="font-style:normal;font-variant:normal;font-weight:normal;font-stretch:normal;font-size:6.25px;line-height:100%;font-family:Lato;-inkscape-font-specification:Lato;text-align:end;text-anchor:end;fill:#dbe2e3;fill-opacity:1"
       id="path4298" />
    <path
       d="m 35.646455,41.065983 0,-3.165625 0.31875,0 q 0.09063,0 0.125,0.03438 0.03438,0.03437 0.04687,0.11875 l 0.03438,0.48125 q 0.15,-0.325 0.36875,-0.50625 0.221875,-0.184375 0.5375,-0.184375 0.1,0 0.190625,0.02188 0.09375,0.02188 0.165625,0.06875 l -0.04062,0.415625 q -0.01875,0.07813 -0.09375,0.07813 -0.04375,0 -0.128125,-0.01875 -0.08438,-0.01875 -0.190625,-0.01875 -0.15,0 -0.26875,0.04687 -0.11875,0.04375 -0.2125,0.13125 -0.09063,0.08438 -0.1625,0.209375 -0.07187,0.125 -0.13125,0.2875 l 0,2 -0.559375,0 z"
       style="font-style:normal;font-variant:normal;font-weight:normal;font-stretch:normal;font-size:6.25px;line-height:100%;font-family:Lato;-inkscape-font-specification:Lato;text-align:end;text-anchor:end;fill:#dbe2e3;fill-opacity:1"
       id="path4300" />
    <path
       d="m 37.744892,38.956608 1.54375,0 0,0.471875 -1.54375,0 0,-0.471875 z"
       style="font-style:normal;font-variant:normal;font-weight:normal;font-stretch:normal;font-size:6.25px;line-height:100%;font-family:Lato;-inkscape-font-specification:Lato;text-align:end;text-anchor:end;fill:#dbe2e3;fill-opacity:1"
       id="path4302" />
    <path
       d="m 41.411103,37.850358 q 0.284375,0 0.525,0.09687 0.24375,0.09375 0.41875,0.275 0.178125,0.178125 0.278125,0.44375 0.1,0.2625 0.1,0.6 0,0.13125 -0.02813,0.175 -0.02813,0.04375 -0.10625,0.04375 l -2.115625,0 q 0.0062,0.3 0.08125,0.521875 0.075,0.221875 0.20625,0.371875 0.13125,0.146875 0.3125,0.221875 0.18125,0.07187 0.40625,0.07187 0.209375,0 0.359375,-0.04687 0.153125,-0.05 0.2625,-0.10625 0.109375,-0.05625 0.18125,-0.103125 0.075,-0.05 0.128125,-0.05 0.06875,0 0.10625,0.05313 l 0.15625,0.203125 q -0.103125,0.125 -0.246875,0.21875 -0.14375,0.09062 -0.309375,0.15 -0.1625,0.05938 -0.3375,0.0875 -0.175,0.03125 -0.346875,0.03125 -0.328125,0 -0.60625,-0.109375 -0.275,-0.1125 -0.478125,-0.325 -0.2,-0.215625 -0.3125,-0.53125 -0.1125,-0.315625 -0.1125,-0.725 0,-0.33125 0.1,-0.61875 0.103125,-0.2875 0.29375,-0.496875 0.190625,-0.2125 0.465625,-0.33125 0.275,-0.121875 0.61875,-0.121875 z m 0.0125,0.409375 q -0.403125,0 -0.634375,0.234375 -0.23125,0.23125 -0.2875,0.64375 l 1.73125,0 q 0,-0.19375 -0.05625,-0.353125 -0.05312,-0.1625 -0.159375,-0.278125 -0.103125,-0.11875 -0.253125,-0.18125 -0.15,-0.06563 -0.340625,-0.06563 z"
       style="font-style:normal;font-variant:normal;font-weight:normal;font-stretch:normal;font-size:6.25px;line-height:100%;font-family:Lato;-inkscape-font-specification:Lato;text-align:end;text-anchor:end;fill:#dbe2e3;fill-opacity:1"
       id="path4304" />
    <path
       d="m 45.009248,41.065983 0,-3.165625 0.334375,0 q 0.11875,0 0.146875,0.115625 l 0.04375,0.34375 q 0.20625,-0.228125 0.4625,-0.36875 0.25625,-0.140625 0.590625,-0.140625 0.259375,0 0.45625,0.0875 0.2,0.08438 0.33125,0.24375 0.134375,0.15625 0.203125,0.378125 0.06875,0.221875 0.06875,0.490625 l 0,2.015625 -0.559375,0 0,-2.015625 q 0,-0.359375 -0.165625,-0.55625 -0.1625,-0.2 -0.496875,-0.2 -0.25,0 -0.465625,0.11875 -0.2125,0.11875 -0.390625,0.321875 l 0,2.33125 -0.559375,0 z"
       style="font-style:normal;font-variant:normal;font-weight:normal;font-stretch:normal;font-size:6.25px;line-height:100%;font-family:Lato;-inkscape-font-specification:Lato;text-align:end;text-anchor:end;fill:#dbe2e3;fill-opacity:1"
       id="path4306" />
    <path
       d="m 49.087959,37.900358 0,3.165625 -0.55625,0 0,-3.165625 0.55625,0 z m 0.11875,-0.99375 q 0,0.08125 -0.03437,0.153125 -0.03125,0.06875 -0.0875,0.125 -0.05313,0.05313 -0.128125,0.08438 -0.07187,0.03125 -0.153125,0.03125 -0.08125,0 -0.153125,-0.03125 -0.06875,-0.03125 -0.121875,-0.08438 -0.05313,-0.05625 -0.08438,-0.125 -0.03125,-0.07187 -0.03125,-0.153125 0,-0.08125 0.03125,-0.153125 0.03125,-0.075 0.08438,-0.128125 0.05312,-0.05625 0.121875,-0.0875 0.07187,-0.03125 0.153125,-0.03125 0.08125,0 0.153125,0.03125 0.075,0.03125 0.128125,0.0875 0.05625,0.05313 0.0875,0.128125 0.03437,0.07187 0.03437,0.153125 z"
       style="font-style:normal;font-variant:normal;font-weight:normal;font-stretch:normal;font-size:6.25px;line-height:100%;font-family:Lato;-inkscape-font-specification:Lato;text-align:end;text-anchor:end;fill:#dbe2e3;fill-opacity:1"
       id="path4308" />
    <path
       d="m 50.561298,36.462858 0,2.709375 0.14375,0 q 0.0625,0 0.103125,-0.01563 0.04375,-0.01875 0.09063,-0.07187 l 1,-1.071875 q 0.04375,-0.05313 0.09063,-0.08125 0.05,-0.03125 0.13125,-0.03125 l 0.503125,0 -1.165625,1.240625 q -0.08438,0.10625 -0.18125,0.165625 0.05625,0.0375 0.1,0.0875 0.04687,0.04687 0.0875,0.109375 l 1.2375,1.5625 -0.496875,0 q -0.07187,0 -0.125,-0.02188 -0.05,-0.025 -0.0875,-0.0875 l -1.040625,-1.296875 q -0.04687,-0.06563 -0.09375,-0.08438 -0.04375,-0.02188 -0.1375,-0.02188 l -0.159375,0 0,1.5125 -0.559375,0 0,-4.603125 0.559375,0 z"
       style="font-style:normal;font-variant:normal;font-weight:normal;font-stretch:normal;font-size:6.25px;line-height:100%;font-family:Lato;-inkscape-font-specification:Lato;text-align:end;text-anchor:end;fill:#dbe2e3;fill-opacity:1"
       id="path4310" />
    <path
       d="m 21.166767,42.712858 0,2.709375 0.14375,0 q 0.0625,0 0.103125,-0.01563 0.04375,-0.01875 0.09062,-0.07187 l 1,-1.071875 q 0.04375,-0.05313 0.09063,-0.08125 0.05,-0.03125 0.13125,-0.03125 l 0.503125,0 -1.165625,1.240625 q -0.08438,0.10625 -0.18125,0.165625 0.05625,0.0375 0.1,0.0875 0.04687,0.04687 0.0875,0.109375 l 1.2375,1.5625 -0.496875,0 q -0.07188,0 -0.125,-0.02188 -0.05,-0.025 -0.0875,-0.0875 l -1.040625,-1.296875 q -0.04687,-0.06563 -0.09375,-0.08438 -0.04375,-0.02188 -0.1375,-0.02188 l -0.159375,0 0,1.5125 -0.559375,0 0,-4.603125 0.559375,0 z"
       style="font-style:normal;font-variant:normal;font-weight:normal;font-stretch:normal;font-size:6.25px;line-height:100%;font-family:Lato;-inkscape-font-specification:Lato;text-align:end;text-anchor:end;fill:#d5ffd5;fill-opacity:1"
       id="path4312" />
    <path
       d="m 24.89499,44.100358 q 0.284375,0 0.525,0.09687 0.24375,0.09375 0.41875,0.275 0.178125,0.178125 0.278125,0.44375 0.1,0.2625 0.1,0.6 0,0.13125 -0.02812,0.175 -0.02812,0.04375 -0.10625,0.04375 l -2.115625,0 q 0.0063,0.3 0.08125,0.521875 0.075,0.221875 0.20625,0.371875 0.13125,0.146875 0.3125,0.221875 0.18125,0.07187 0.40625,0.07187 0.209375,0 0.359375,-0.04687 0.153125,-0.05 0.2625,-0.10625 0.109375,-0.05625 0.18125,-0.103125 0.075,-0.05 0.128125,-0.05 0.06875,0 0.10625,0.05313 l 0.15625,0.203125 q -0.103125,0.125 -0.246875,0.21875 -0.14375,0.09062 -0.309375,0.15 -0.1625,0.05938 -0.3375,0.0875 -0.175,0.03125 -0.346875,0.03125 -0.328125,0 -0.60625,-0.109375 -0.275,-0.1125 -0.478125,-0.325 -0.2,-0.215625 -0.3125,-0.53125 -0.1125,-0.315625 -0.1125,-0.725 0,-0.33125 0.1,-0.61875 0.103125,-0.2875 0.29375,-0.496875 0.190625,-0.2125 0.465625,-0.33125 0.275,-0.121875 0.61875,-0.121875 z m 0.0125,0.409375 q -0.403125,0 -0.634375,0.234375 -0.23125,0.23125 -0.2875,0.64375 l 1.73125,0 q 0,-0.19375 -0.05625,-0.353125 -0.05313,-0.1625 -0.159375,-0.278125 -0.103125,-0.11875 -0.253125,-0.18125 -0.15,-0.06563 -0.340625,-0.06563 z"
       style="font-style:normal;font-variant:normal;font-weight:normal;font-stretch:normal;font-size:6.25px;line-height:100%;font-family:Lato;-inkscape-font-specification:Lato;text-align:end;text-anchor:end;fill:#d5ffd5;fill-opacity:1"
       id="path4314" />
    <path
       d="m 26.894013,47.315983 0,-3.165625 0.31875,0 q 0.09063,0 0.125,0.03438 0.03438,0.03437 0.04687,0.11875 l 0.03438,0.48125 q 0.15,-0.325 0.36875,-0.50625 0.221875,-0.184375 0.5375,-0.184375 0.1,0 0.190625,0.02188 0.09375,0.02188 0.165625,0.06875 l -0.04062,0.415625 q -0.01875,0.07813 -0.09375,0.07813 -0.04375,0 -0.128125,-0.01875 -0.08437,-0.01875 -0.190625,-0.01875 -0.15,0 -0.26875,0.04687 -0.11875,0.04375 -0.2125,0.13125 -0.09062,0.08438 -0.1625,0.209375 -0.07188,0.125 -0.13125,0.2875 l 0,2 -0.559375,0 z"
       style="font-style:normal;font-variant:normal;font-weight:normal;font-stretch:normal;font-size:6.25px;line-height:100%;font-family:Lato;-inkscape-font-specification:Lato;text-align:end;text-anchor:end;fill:#d5ffd5;fill-opacity:1"
       id="path4316" />
    <path
       d="m 31.329951,47.315983 q -0.11875,0 -0.15,-0.115625 l -0.05,-0.384375 q -0.203125,0.246875 -0.465625,0.396875 -0.259375,0.146875 -0.596875,0.146875 -0.271875,0 -0.49375,-0.103125 -0.221875,-0.10625 -0.378125,-0.309375 -0.15625,-0.203125 -0.240625,-0.50625 -0.08438,-0.303125 -0.08438,-0.696875 0,-0.35 0.09375,-0.65 0.09375,-0.303125 0.26875,-0.525 0.175,-0.221875 0.428125,-0.346875 0.25625,-0.128125 0.575,-0.128125 0.290625,0 0.496875,0.1 0.209375,0.09687 0.371875,0.275 l 0,-1.75625 0.55625,0 0,4.603125 -0.33125,0 z m -1.08125,-0.40625 q 0.275,0 0.478125,-0.125 0.20625,-0.125 0.378125,-0.353125 l 0,-1.528125 q -0.15625,-0.20625 -0.3375,-0.290625 -0.18125,-0.08438 -0.40625,-0.08438 -0.440625,0 -0.678125,0.315625 -0.2375,0.315625 -0.2375,0.9 0,0.309375 0.05313,0.53125 0.05312,0.21875 0.15625,0.3625 0.103125,0.140625 0.253125,0.20625 0.15,0.06563 0.340625,0.06563 z"
       style="font-style:normal;font-variant:normal;font-weight:normal;font-stretch:normal;font-size:6.25px;line-height:100%;font-family:Lato;-inkscape-font-specification:Lato;text-align:end;text-anchor:end;fill:#d5ffd5;fill-opacity:1"
       id="path4318" />
    <path
       d="m 32.308369,47.315983 0,0 z m 2.25,0 q -0.08125,0 -0.125,-0.025 -0.04375,-0.02812 -0.06875,-0.10625 l -0.0625,-0.296875 q -0.125,0.1125 -0.246875,0.203125 -0.11875,0.0875 -0.25,0.15 -0.128125,0.05938 -0.278125,0.09063 -0.146875,0.03437 -0.328125,0.03437 -0.184375,0 -0.346875,-0.05 -0.1625,-0.05313 -0.284375,-0.15625 -0.11875,-0.103125 -0.190625,-0.259375 -0.06875,-0.159375 -0.06875,-0.375 0,-0.1875 0.103125,-0.359375 0.103125,-0.175 0.334375,-0.309375 0.23125,-0.134375 0.603125,-0.21875 0.371875,-0.0875 0.9125,-0.1 l 0,-0.246875 q 0,-0.36875 -0.159375,-0.55625 -0.159375,-0.190625 -0.465625,-0.190625 -0.20625,0 -0.346875,0.05313 -0.1375,0.05 -0.240625,0.115625 -0.1,0.0625 -0.175,0.115625 -0.07188,0.05 -0.14375,0.05 -0.05625,0 -0.09687,-0.02813 -0.04062,-0.03125 -0.06875,-0.075 l -0.1,-0.178125 q 0.2625,-0.253125 0.565625,-0.378125 0.303125,-0.125 0.671875,-0.125 0.265625,0 0.471875,0.0875 0.20625,0.0875 0.346875,0.24375 0.140625,0.15625 0.2125,0.378125 0.07187,0.221875 0.07187,0.4875 l 0,2.025 -0.246875,0 z m -1.19375,-0.340625 q 0.146875,0 0.26875,-0.02813 0.121875,-0.03125 0.228125,-0.08437 0.109375,-0.05625 0.20625,-0.134375 0.1,-0.08125 0.19375,-0.18125 l 0,-0.65625 q -0.384375,0.0125 -0.65625,0.0625 -0.26875,0.04687 -0.440625,0.125 -0.16875,0.07813 -0.246875,0.184375 -0.075,0.10625 -0.075,0.2375 0,0.125 0.04062,0.215625 0.04062,0.09062 0.109375,0.15 0.07187,0.05625 0.165625,0.08438 0.09687,0.025 0.20625,0.025 z m -0.628125,-3.871875 1.79375,0 0,0.365625 -1.79375,0 0,-0.365625 z"
       style="font-style:normal;font-variant:normal;font-weight:normal;font-stretch:normal;font-size:6.25px;line-height:100%;font-family:Lato;-inkscape-font-specification:Lato;text-align:end;text-anchor:end;fill:#d5ffd5;fill-opacity:1"
       id="path4320" />
    <path
       d="m 35.646455,47.315983 0,-3.165625 0.31875,0 q 0.09063,0 0.125,0.03438 0.03438,0.03437 0.04687,0.11875 l 0.03438,0.48125 q 0.15,-0.325 0.36875,-0.50625 0.221875,-0.184375 0.5375,-0.184375 0.1,0 0.190625,0.02188 0.09375,0.02188 0.165625,0.06875 l -0.04062,0.415625 q -0.01875,0.07813 -0.09375,0.07813 -0.04375,0 -0.128125,-0.01875 -0.08438,-0.01875 -0.190625,-0.01875 -0.15,0 -0.26875,0.04687 -0.11875,0.04375 -0.2125,0.13125 -0.09063,0.08438 -0.1625,0.209375 -0.07187,0.125 -0.13125,0.2875 l 0,2 -0.559375,0 z"
       style="font-style:normal;font-variant:normal;font-weight:normal;font-stretch:normal;font-size:6.25px;line-height:100%;font-family:Lato;-inkscape-font-specification:Lato;text-align:end;text-anchor:end;fill:#d5ffd5;fill-opacity:1"
       id="path4322" />
    <path
       d="m 37.744892,45.206608 1.54375,0 0,0.471875 -1.54375,0 0,-0.471875 z"
       style="font-style:normal;font-variant:normal;font-weight:normal;font-stretch:normal;font-size:6.25px;line-height:100%;font-family:Lato;-inkscape-font-specification:Lato;text-align:end;text-anchor:end;fill:#d5ffd5;fill-opacity:1"
       id="path4324" />
    <path
       d="m 41.411103,44.100358 q 0.284375,0 0.525,0.09687 0.24375,0.09375 0.41875,0.275 0.178125,0.178125 0.278125,0.44375 0.1,0.2625 0.1,0.6 0,0.13125 -0.02813,0.175 -0.02813,0.04375 -0.10625,0.04375 l -2.115625,0 q 0.0062,0.3 0.08125,0.521875 0.075,0.221875 0.20625,0.371875 0.13125,0.146875 0.3125,0.221875 0.18125,0.07187 0.40625,0.07187 0.209375,0 0.359375,-0.04687 0.153125,-0.05 0.2625,-0.10625 0.109375,-0.05625 0.18125,-0.103125 0.075,-0.05 0.128125,-0.05 0.06875,0 0.10625,0.05313 l 0.15625,0.203125 q -0.103125,0.125 -0.246875,0.21875 -0.14375,0.09062 -0.309375,0.15 -0.1625,0.05938 -0.3375,0.0875 -0.175,0.03125 -0.346875,0.03125 -0.328125,0 -0.60625,-0.109375 -0.275,-0.1125 -0.478125,-0.325 -0.2,-0.215625 -0.3125,-0.53125 -0.1125,-0.315625 -0.1125,-0.725 0,-0.33125 0.1,-0.61875 0.103125,-0.2875 0.29375,-0.496875 0.190625,-0.2125 0.465625,-0.33125 0.275,-0.121875 0.61875,-0.121875 z m 0.0125,0.409375 q -0.403125,0 -0.634375,0.234375 -0.23125,0.23125 -0.2875,0.64375 l 1.73125,0 q 0,-0.19375 -0.05625,-0.353125 -0.05312,-0.1625 -0.159375,-0.278125 -0.103125,-0.11875 -0.253125,-0.18125 -0.15,-0.06563 -0.340625,-0.06563 z"
       style="font-style:normal;font-variant:normal;font-weight:normal;font-stretch:normal;font-size:6.25px;line-height:100%;font-family:Lato;-inkscape-font-specification:Lato;text-align:end;text-anchor:end;fill:#d5ffd5;fill-opacity:1"
       id="path4326" />
    <path
       d="m 45.009248,47.315983 0,-3.165625 0.334375,0 q 0.11875,0 0.146875,0.115625 l 0.04375,0.34375 q 0.20625,-0.228125 0.4625,-0.36875 0.25625,-0.140625 0.590625,-0.140625 0.259375,0 0.45625,0.0875 0.2,0.08438 0.33125,0.24375 0.134375,0.15625 0.203125,0.378125 0.06875,0.221875 0.06875,0.490625 l 0,2.015625 -0.559375,0 0,-2.015625 q 0,-0.359375 -0.165625,-0.55625 -0.1625,-0.2 -0.496875,-0.2 -0.25,0 -0.465625,0.11875 -0.2125,0.11875 -0.390625,0.321875 l 0,2.33125 -0.559375,0 z"
       style="font-style:normal;font-variant:normal;font-weight:normal;font-stretch:normal;font-size:6.25px;line-height:100%;font-family:Lato;-inkscape-font-specification:Lato;text-align:end;text-anchor:end;fill:#d5ffd5;fill-opacity:1"
       id="path4328" />
    <path
       d="m 49.087959,44.150358 0,3.165625 -0.55625,0 0,-3.165625 0.55625,0 z m 0.11875,-0.99375 q 0,0.08125 -0.03437,0.153125 -0.03125,0.06875 -0.0875,0.125 -0.05313,0.05313 -0.128125,0.08438 -0.07187,0.03125 -0.153125,0.03125 -0.08125,0 -0.153125,-0.03125 -0.06875,-0.03125 -0.121875,-0.08438 -0.05313,-0.05625 -0.08438,-0.125 -0.03125,-0.07187 -0.03125,-0.153125 0,-0.08125 0.03125,-0.153125 0.03125,-0.075 0.08438,-0.128125 0.05312,-0.05625 0.121875,-0.0875 0.07187,-0.03125 0.153125,-0.03125 0.08125,0 0.153125,0.03125 0.075,0.03125 0.128125,0.0875 0.05625,0.05313 0.0875,0.128125 0.03437,0.07187 0.03437,0.153125 z"
       style="font-style:normal;font-variant:normal;font-weight:normal;font-stretch:normal;font-size:6.25px;line-height:100%;font-family:Lato;-inkscape-font-specification:Lato;text-align:end;text-anchor:end;fill:#d5ffd5;fill-opacity:1"
       id="path4330" />
    <path
       d="m 50.561298,42.712858 0,2.709375 0.14375,0 q 0.0625,0 0.103125,-0.01563 0.04375,-0.01875 0.09063,-0.07187 l 1,-1.071875 q 0.04375,-0.05313 0.09063,-0.08125 0.05,-0.03125 0.13125,-0.03125 l 0.503125,0 -1.165625,1.240625 q -0.08438,0.10625 -0.18125,0.165625 0.05625,0.0375 0.1,0.0875 0.04687,0.04687 0.0875,0.109375 l 1.2375,1.5625 -0.496875,0 q -0.07187,0 -0.125,-0.02188 -0.05,-0.025 -0.0875,-0.0875 l -1.040625,-1.296875 q -0.04687,-0.06563 -0.09375,-0.08438 -0.04375,-0.02188 -0.1375,-0.02188 l -0.159375,0 0,1.5125 -0.559375,0 0,-4.603125 0.559375,0 z"
       style="font-style:normal;font-variant:normal;font-weight:normal;font-stretch:normal;font-size:6.25px;line-height:100%;font-family:Lato;-inkscape-font-specification:Lato;text-align:end;text-anchor:end;fill:#d5ffd5;fill-opacity:1"
       id="path4332" />
  </g>
</svg>
